<svg width="42" height="50" viewBox="0 0 42 50" fill="none" xmlns="http://www.w3.org/2000/svg">
<g clip-path="url(#clip0)">
<path class="path" fill-rule="evenodd" clip-rule="evenodd" d="M16.7822 40.5594C19.3767 40.5569 21.9817 40.5384 24.5752 40.5601C25.6702 40.5692 25.3038 40.5603 25.8694 39.8935C26.1962 39.5082 26.4282 39.3193 26.8638 38.9936C29.5373 36.9941 32.7982 37.3133 35.3829 39.4022C36.8049 40.5515 38.0043 42.954 35.5372 44.1783L36.5109 44.8886C37.8006 44.4723 39.9504 43.116 40.6686 42.3853C42.397 40.6267 42.1507 40.4513 41.553 37.7241C41.1954 36.0928 40.5668 34.1466 39.8266 32.83C38.8065 31.0155 38.2881 30.6787 36.4601 29.6154C35.529 29.0738 28.3115 25.0506 27.797 25.0034C27.3354 24.9611 26.9952 25.3224 26.6928 25.5291C26.3824 25.7411 26.0446 25.9456 25.6641 26.1523C23.576 27.2864 22.8753 26.7158 22.4153 27.8528C22.2225 28.3294 21.2342 31.081 21.0098 31.3791C20.7734 31.0652 19.7941 28.2969 19.5806 27.7946C19.1343 26.7445 18.3882 27.2658 16.3026 26.1235C15.3595 25.6069 14.7123 24.9194 14.1502 25.0134C13.7284 25.084 10.3691 26.9907 9.76415 27.3031C8.54081 27.9348 4.36318 30.1225 3.50853 31.0202C1.94074 32.6671 1.03902 35.4965 0.466617 37.8213C0.342681 38.3247 -0.0847237 40.1062 0.0149243 40.5303C0.397862 42.1609 3.77237 44.2922 5.50856 44.8987C5.81859 44.7274 6.02896 44.476 6.47873 44.2291C6.19684 43.9818 5.8864 43.9259 5.62855 43.6414C4.63675 42.547 5.08823 41.4488 5.64961 40.5507C6.24048 39.6056 7.40916 38.605 8.79487 38.0947C10.3358 37.5271 12.0725 37.5238 13.6229 38.1363C15.8865 39.0308 16.3438 40.4071 16.7821 40.5594H16.7822Z" fill="white"/>
<path fill-rule="evenodd" clip-rule="evenodd" d="M11.3544 11.6524C11.5085 11.7515 11.5858 11.9588 11.7064 12.1307C11.8694 12.3631 11.9619 12.429 12.1421 12.599C13.2619 13.6551 13.6554 12.4069 15.4141 11.2548C18.8934 8.97557 23.1276 8.97603 26.6063 11.2548C27.3607 11.749 28.1729 12.5546 28.6339 12.8549C29.6365 13.5082 30.4539 11.7871 30.6658 11.6524C30.7233 15.812 30.4183 18.2539 28.3807 21.0785C27.4827 22.3234 26.6753 23.0581 25.3569 23.9815C24.4377 24.6254 22.4153 25.6063 21.0102 25.6064C19.6057 25.6064 17.5819 24.6248 16.6634 23.9815C12.1925 20.8499 11.2774 17.2307 11.3544 11.6524V11.6524ZM17.334 4.99134C17.8845 4.90897 18.4754 4.70595 19.1042 4.59599C21.7945 4.12548 22.5678 4.67083 24.7091 5.00004L23.8975 7.03657C23.0125 7.01092 22.1815 6.6323 21.0102 6.6323C19.8388 6.6323 19.0077 7.01092 18.12 7.03764L17.3339 4.99129L17.334 4.99134ZM19.3053 0.112435C17.1607 0.382933 16.1538 0.499549 14.3479 1.39515C13.0517 2.03807 11.9083 3.20638 11.1906 4.48669C9.31603 7.83117 8.94261 15.899 11.1338 20.1164C11.9909 21.766 12.751 22.6672 13.7639 23.7319C14.0553 24.0381 14.2537 24.1625 14.5947 24.4656C16.6039 26.2512 19.8417 27.7158 22.6226 26.9998C27.2796 25.8006 30.6239 21.9349 31.8175 17.6083C32.3277 15.7591 32.3642 13.9143 32.3095 11.8671C32.1923 7.47421 31.4749 3.84167 28.3935 1.82348C25.9471 0.221166 22.1187 -0.242582 19.3052 0.112332L19.3053 0.112435Z" fill="white"/>
<path fill-rule="evenodd" clip-rule="evenodd" d="M15.5388 43.4819C15.3436 43.2595 15.2295 42.9607 15.0917 42.7407C13.6486 40.4371 10.2286 39.7622 7.94697 41.8454C5.36195 44.2056 8.82638 43.2049 11.4412 43.4067C11.7464 44.0577 11.7672 46.3002 11.4353 46.9832C10.7301 47.0231 9.95221 46.995 9.23891 46.9955C8.80251 46.9958 7.36214 46.8746 7.11474 47.1545C6.54816 47.7957 10.4235 51.5524 13.9786 48.8442C15.078 48.0067 15.1832 47.3348 15.5388 46.9003L26.4808 46.9053C26.8439 47.3276 27.007 48.1018 28.0373 48.8477C31.531 51.3772 35.0304 48.2475 34.993 47.1339C34.5241 46.8233 31.5828 46.9924 30.7084 46.9932C30.4659 46.8643 30.5723 47.069 30.4522 46.627C30.2805 45.9954 30.3051 44.0535 30.5743 43.4048C31.3901 43.3507 34.4893 43.5823 34.936 43.2785C35.1824 42.7022 33.8264 41.598 33.4299 41.3392C31.3776 40.0003 28.608 40.5029 27.1345 42.4558C26.9181 42.7426 26.6868 43.2361 26.4808 43.4877L15.5388 43.4819Z" fill="white"/>
</g>
<defs>
<clipPath id="clip0">
<rect width="42" height="49.814" fill="white"/>
</clipPath>
</defs>
</svg>
