<svg width="68" height="68" viewBox="0 0 68 68" fill="none" xmlns="http://www.w3.org/2000/svg">
<path fill-rule="evenodd" clip-rule="evenodd" d="M26.7251 67.5002L13.4332 55.2857C13.4183 55.2721 13.4033 55.2578 13.3884 55.2435C13.3863 55.2421 13.3849 55.2408 13.3829 55.2387C12.2348 54.1627 11.4091 52.652 10.9003 50.9067C10.6275 49.9715 10.5126 48.0663 10.7785 47.2216C11.0941 46.2176 11.4907 44.8328 11.6927 43.7962C11.979 42.3311 11.4982 41.4115 11.9035 39.9805C12.1049 39.2704 12.3565 39.0847 12.3497 38.293C12.3436 37.6339 12.4946 36.9979 12.7279 36.4647C13.1646 35.4675 13.9311 34.7765 14.7745 34.2031C15.4683 33.7317 16.8497 32.9115 17.6952 32.5557C18.0625 32.4115 21.0314 31.328 21.6755 31.1362C22.8937 30.7744 22.6339 31.3471 23.7045 30.5207C24.233 30.1126 24.9186 29.9718 25.7797 29.9718C26.2531 27.4953 26.5925 28.606 26.4877 26.9593C26.4082 25.7091 26.4714 24.4978 26.4252 23.3231L26.3585 23.2612C25.4682 22.443 25.7606 21.3581 25.411 20.076C24.7513 17.6532 26.4993 17.3009 26.5796 17.107C27.0026 14.9087 25.9572 11.0685 27.3298 9.33541C28.9935 7.23504 34.5709 6.73036 37.6874 7.8676C38.1343 8.03084 38.6179 8.34032 39.1716 8.55321C39.4606 8.66476 39.7021 8.81712 39.9048 9.00349L67.5 34.3623V62.9988C67.5 65.4828 65.4846 67.4981 62.9999 67.4981L26.7244 67.4988L26.7251 67.5002Z" fill="#E1DBDB"/>
<path fill-rule="evenodd" clip-rule="evenodd" d="M42.1927 53.2684C42.7191 53.3133 43.3381 53.4895 43.9013 53.5657C45.8159 53.8234 47.5504 53.8989 49.5059 53.6493C51.0927 53.4473 53.423 52.8692 54.4589 51.6285C54.6411 51.4102 54.6969 51.2157 54.8602 51.0171C54.7568 51.7584 53.5073 52.6331 52.7741 52.9474C49.8303 54.2084 45.7547 54.171 42.6157 53.4106L42.1927 53.2684ZM12.8427 52.3679C12.5754 52.0264 12.4631 51.4116 12.3951 50.9157C12.3285 50.4287 12.3162 50.4906 12.5067 50.1512C12.7025 49.8023 12.5128 49.5322 12.6611 49.2935C12.793 49.4948 13.2827 50.5028 13.246 50.6913C13.2072 50.8858 13.0576 51.1987 12.995 51.4612C12.9352 51.7142 12.9392 52.1591 12.8427 52.3679ZM13.8704 46.6354C13.9683 46.8823 13.986 47.353 14.1221 47.689C14.6029 48.8766 14.9138 48.0808 14.0779 49.2112C13.9377 49.4017 13.784 49.7839 13.5575 49.8989C13.4385 49.5669 12.8617 48.4542 12.8944 48.1229C12.9297 47.7604 13.6235 46.7837 13.8704 46.6354ZM14.069 52.5631C14.607 51.0858 14.5179 50.9089 15.4763 49.8057C16.0476 49.1486 17.0502 48.5684 18.033 48.1712C19.826 47.4462 23.6887 47.1006 25.4585 47.776C26.491 48.1699 27.465 48.5385 28.4893 48.9466C29.6864 49.4234 32.488 51.3578 33.6511 52.187C34.2306 52.5998 35.6386 53.4745 36.1045 53.9731C35.342 54.4288 28.2927 55.4627 26.8576 55.6096C24.8034 55.8191 18.3378 56.4271 16.7727 55.6334C17.9875 55.4382 19.796 55.3436 20.5803 54.6818C19.7144 54.7689 19.1526 55.0852 18.0405 55.0913C17.0373 55.0967 16.2456 55.0178 15.3634 54.7594C14.3887 54.4737 14.1255 54.2302 13.8888 53.2521C13.3616 51.0715 15.4049 48.6759 17.1209 47.6903C17.899 47.2435 21.0537 46.1681 22.0161 46.6946C20.7292 47.1285 19.1499 46.7939 16.7523 48.3365C15.6885 49.0208 14.0037 50.6947 14.0683 52.5624V52.5631H14.069ZM15.0185 48.074L14.4751 47.0571C14.7077 46.953 16.8597 44.6105 20.8415 45.2587L20.9115 45.7056C19.3703 45.9648 18.9363 45.9103 17.544 46.4497C16.0517 47.0285 15.4219 47.9168 15.0192 48.074H15.0185ZM34.485 44.9676L35.0829 44.9635C35.1148 45.1574 35.1209 45.4852 34.9944 45.6029C34.938 45.7131 35.1563 45.6838 34.8468 45.7002L32.8505 45.6981L32.9016 44.9574L34.485 44.9669H34.4843L34.485 44.9676ZM26.2903 45.3655C26.3352 45.6736 26.3284 45.6478 26.0692 45.6396C26.1175 45.4859 26.1277 45.4288 26.2903 45.3655ZM35.6569 45.6804L35.6413 45.054C35.9392 44.9812 36.552 45.0431 36.8948 45.0458L36.8935 45.5703L35.6569 45.6804ZM29.6245 44.9445C30.2094 44.818 31.4793 44.9037 32.1398 44.9221L32.1166 45.643L29.7619 45.5757C29.4381 45.5165 29.5918 45.3247 29.6245 44.9452V44.9445ZM27.7955 45.0064L29.0246 44.9302L29.0035 45.5124L27.7377 45.5369L27.7955 45.0064ZM22.8575 45.088L25.8319 45.7451C25.7686 45.8716 25.9087 45.7321 25.7332 45.875C25.7142 45.8906 25.5523 45.9722 25.5346 45.9797C24.5946 46.3579 23.8594 45.8818 23.1296 45.3819C23.0826 45.3499 23.0282 45.3111 22.9962 45.2798C22.8371 45.1227 22.9105 45.1533 22.8575 45.0873V45.088ZM37.4716 45.488L37.4703 45.156C37.6287 45.0499 37.6396 45.0554 37.9906 45.0785L39.4448 45.1343C38.8401 45.2934 38.1504 45.4506 37.4716 45.488ZM53.0189 46.2865C53.1815 46.3749 53.2407 46.4613 53.3468 46.6456C53.1373 46.5375 53.0495 46.5055 52.9455 46.3409C52.2762 45.8165 51.4409 45.3166 50.4132 45.0166C49.6167 44.784 47.6837 44.4521 46.9158 44.7935C49.1433 44.8772 50.216 45.0969 51.7477 46.1266C52.2565 46.4688 54.6656 48.7596 54.2582 49.6526C53.2346 51.8965 47.9728 52.4985 44.8215 52.625C40.8405 52.7848 37.4886 51.9149 34.4816 50.545C33.0546 49.8948 31.6024 49.2717 30.1918 48.648C29.4218 48.3079 26.0958 47.1074 25.7856 46.8721C27.0337 46.1457 31.4412 46.5592 33.1648 46.617C35.7766 46.7061 38.06 46.4246 40.4508 45.909C42.6593 45.4329 44.8079 44.8404 47.0743 44.5187C49.4929 44.1752 52.113 44.633 53.0183 46.2858L53.0189 46.2851V46.2865ZM17.0672 44.92C16.9182 45.1111 16.7298 45.1751 16.5333 45.2451C16.1551 45.4295 15.7089 45.7573 15.4355 45.9797C15.1512 46.2123 14.6669 46.7918 14.4798 46.8646L14.4655 46.1613C14.2105 45.9879 14.7757 46.3062 14.3438 46.1178C14.1588 46.0369 14.3091 46.1681 14.1622 46.0212C14.4594 45.8559 14.5363 45.4914 15.498 44.9771C16.0558 44.6792 16.6625 44.518 17.3597 44.431C18.199 44.3255 21.0714 44.518 21.6563 44.8459C20.9952 45.1962 19.3437 45.0125 18.5309 44.8976L20.1178 44.7745C19.1356 44.4412 17.1699 44.9227 17.0665 44.9187L17.0672 44.92ZM37.5424 43.3869L41.7336 43.5175L41.8417 44.6711L37.4988 44.5473L37.5417 43.3869H37.5424ZM36.9941 43.3638L36.9173 44.5296L35.7127 44.4453L35.8134 43.3407L36.9941 43.3638H36.9935H36.9941ZM33.0607 43.2556L35.1618 43.3216L35.1053 44.3881C34.8584 44.5636 34.3081 44.4459 34.0007 44.4439C33.6321 44.4412 33.3165 44.4208 32.9512 44.4106L33.0614 43.2563L33.0607 43.257V43.2556ZM29.8047 43.2182L32.2289 43.2414L32.2064 44.3786L29.6939 44.3868L29.8047 43.2182V43.2175V43.2182ZM27.3976 43.3604L27.2582 44.5371L26.9297 44.531C26.9181 44.533 26.9011 44.5357 26.8902 44.5384C26.0835 44.7044 26.0475 44.6534 25.1456 44.6445L25.3136 43.5155L25.9033 43.5216L27.3976 43.3604H27.3983H27.3976ZM29.2375 43.24L29.1348 44.3922L27.8527 44.4636L27.9615 43.3087L29.2382 43.2393H29.2375V43.24ZM51.29 43.108C52.1354 43.1468 53.3679 43.7603 54.0616 44.114L53.9623 45.8267C53.7535 45.7253 53.1128 44.9193 52.7353 44.6309C52.349 44.3357 51.6137 43.912 51.1206 43.8243L51.29 43.1087V43.108ZM13.0732 45.826L12.9733 44.1133C13.6704 43.7583 14.9009 43.1461 15.7449 43.1074L15.9143 43.8229C14.4424 44.0861 13.3535 45.6886 13.0726 45.8253L13.0732 45.826ZM47.6919 42.2762C47.7884 42.1558 47.6612 42.251 47.8408 42.1395C47.8932 42.1068 47.9483 42.0939 48.0095 42.0667C48.3278 41.9245 48.6495 41.7586 49.0059 41.7055C48.8958 41.8939 48.7529 41.9926 48.7203 42.1905L47.6919 42.2762ZM18.3133 42.2068C18.282 41.9926 18.1391 41.8939 18.029 41.7055C18.2745 41.7416 18.5017 41.8348 18.7309 41.9313C18.9451 42.0211 19.205 42.1048 19.343 42.2755L18.3133 42.2068ZM52.3775 41.0628L52.6979 39.9119L52.7054 39.8364L53.7039 40.0105C53.9433 41.345 54.2698 41.7763 54.1569 43.3373L51.411 42.7353L50.25 42.7312L49.8004 42.821L49.9459 42.9162L50.72 42.9706L50.5901 43.6134L48.6577 43.4529L48.8345 42.9094C48.1006 42.9496 48.2775 42.9543 48.0857 43.4645L45.9377 43.7528C46.2302 43.225 47.598 42.7686 48.319 42.6163L48.3285 42.9135C49.2916 42.6782 48.891 42.6591 49.1692 42.4904C49.4304 42.3326 49.9691 42.4456 50.2445 42.2993L48.9821 42.1966C49.2971 41.9837 49.2726 42.3415 49.6365 41.8831C49.782 41.6987 49.9194 41.4695 50.0928 41.3974C50.0133 41.2852 50.0779 41.2927 49.8317 41.3199C49.261 41.3001 48.6801 41.4695 48.1748 41.6355C47.7891 41.762 47.0219 42.1252 46.7573 42.1776C46.6362 42.3218 46.7172 42.2714 46.4805 42.3184L46.6879 42.0966C47.2878 41.5151 49.3542 39.5861 50.2772 39.2766C50.2962 39.9534 50.32 39.9534 49.7528 40.1792L50.1541 40.2003L49.4943 41.2308C50.6309 41.1525 50.3914 40.7676 50.805 39.9901L52.1 39.8663C52.0252 40.9478 51.3702 41.0124 52.3789 41.0614L52.3782 41.0621L52.3775 41.0628ZM20.3477 42.0987L20.5415 42.3313C20.3177 42.2742 20.3994 42.3238 20.2776 42.1803C20.0015 42.1245 19.2601 41.7667 18.8635 41.6382C18.3704 41.4777 17.763 41.3015 17.2026 41.3226C17.0618 41.3131 16.9427 41.2559 16.9427 41.3988C17.1162 41.4722 17.2495 41.7008 17.3971 41.8858C17.7617 42.3415 17.7392 41.9864 18.0534 42.2157L16.7856 42.3299C17.0958 42.4204 17.6079 42.336 17.8644 42.4918C18.0752 42.6197 17.8766 42.7734 18.7445 42.9108L18.7663 42.6129C19.4362 42.77 20.8041 43.2271 21.0972 43.7494L18.9479 43.4726C18.7567 42.955 18.9336 42.9509 18.197 42.9115L18.3561 43.4325L16.4469 43.6352L16.3272 42.9693L17.0883 42.9169L17.227 42.8067L16.7842 42.7312L15.6225 42.7353L12.8794 43.3481C12.7624 41.7647 13.1038 41.3491 13.3229 39.9867L14.3275 39.8364L14.335 39.9126L14.6553 41.0634C15.6572 41.0145 15.0151 40.956 14.9376 39.8439L16.1952 40.0275C16.689 40.4914 16.1898 41.1403 17.5481 41.2274L16.9033 40.1418L17.5562 40.2697L16.8012 39.952L16.7564 39.2787C17.6794 39.5882 19.7423 41.5144 20.3456 42.0987H20.3463H20.3477ZM50.8424 38.9434C51.1226 38.7175 51.6355 38.4189 52.03 38.3414C52.0789 38.7087 52.1368 39.093 52.0953 39.497L50.8417 39.7888L50.8424 38.944V38.9434ZM15.0049 38.3407C15.3967 38.4183 15.917 38.7169 16.1918 38.9434L16.1979 39.782L14.9097 39.512L15.0056 38.3407V38.34L15.0049 38.3407ZM45.6479 40.4622C45.5731 39.8766 45.9214 38.423 46.003 37.7952C46.3798 38.3183 45.9309 40.0133 45.6479 40.4622ZM21.3883 40.4622C21.1047 40.0119 20.6571 38.3196 21.0326 37.7952C21.1149 38.4223 21.4625 39.8766 21.3883 40.4622ZM35.2264 37.7517C35.4549 37.7605 35.5311 37.7327 35.7181 37.819C35.7141 37.917 35.7277 37.9381 35.6964 38.0585C35.6175 38.3611 35.695 38.1156 35.6005 38.2258L35.1869 42.7863L33.1695 42.7305C33.0253 42.1714 33.6355 38.2734 33.849 37.7034L35.2264 37.7517ZM13.2487 37.5694L14.4547 38.0578L14.3261 39.4399L13.4201 39.4501L13.2487 37.5701V37.5694ZM36.4704 37.8116L37.4981 37.8564L37.0003 42.8407L35.8195 42.7822L36.4704 37.8116ZM32.2255 39.7684L32.2731 42.6904C31.9928 42.8421 30.219 42.785 29.8102 42.7387C29.7721 42.5367 29.7905 42.1606 29.8938 41.9796L29.7809 37.3994L29.7109 37.3885L32.1289 37.6095L32.2255 39.7677V39.7684ZM41.7444 39.0685L41.603 39.0535L41.6485 42.9863L37.5879 42.8577C37.6206 41.8742 37.8212 38.8155 38.0749 38.0108C38.1858 37.6585 39.9814 37.7687 40.4501 37.7279C41.1867 37.664 42.1179 37.4926 42.8123 37.4674C42.7035 38.37 42.5246 39.1651 42.4518 40.1275C42.3913 40.9383 42.4246 42.1728 42.2627 42.9332L41.7424 39.0692L41.7431 39.0685H41.7444ZM29.2225 42.6782C29.098 42.8081 29.2137 42.7571 28.9273 42.7659L27.9744 42.8217C27.9547 42.5918 27.9751 42.368 27.9962 42.1381C28.0118 41.9667 28.0023 41.6844 28.0873 41.5396L27.8595 37.2497L29.1355 37.3756C29.1967 38.0897 29.5952 42.3741 29.2218 42.6782H29.2225ZM25.4326 39.0529L25.2911 39.0685L24.7919 42.923L24.2702 37.2157L24.1981 37.2232L27.2507 37.2082C27.5228 39.1229 27.6486 40.8131 27.4384 42.8407L25.4176 42.9917L25.4333 39.0529L25.4326 39.0535V39.0529ZM36.8377 36.1553L37.8416 36.1547L37.6274 37.2994L36.5813 37.2729L36.837 36.1547L36.8377 36.1553ZM34.2605 36.0458L35.9909 36.1329L35.7746 37.262L33.9545 37.1763L34.2599 36.0458H34.2605ZM29.4143 35.6751L31.9452 35.871L32.0643 37.0328L29.6061 36.8416L29.415 35.6751H29.4143ZM54.2732 35.8744C54.6514 36.0696 55.237 37.2831 55.354 37.6334C55.8797 39.2134 55.4608 44.1786 55.6723 45.8314C55.522 45.6063 55.5104 43.4168 55.492 43.0849C55.4444 42.2014 55.4621 41.1947 55.4614 40.3037C55.4587 36.4301 54.4956 36.6607 54.2732 35.8738V35.8744ZM27.5235 35.552L28.809 35.6323L29.0083 36.7954L27.7309 36.7131L27.5235 35.5513H27.5228L27.5235 35.552ZM38.2116 37.2837C38.315 36.3376 38.3429 36.154 38.7231 36.1275C40.8527 35.9792 40.8623 36.069 43.2809 35.6609C43.2184 35.8867 42.9198 36.7784 42.9613 36.943L38.2116 37.2837V37.2844V37.2837ZM26.9249 35.5282L27.1174 36.6015L24.0219 36.575L23.7016 35.4983L26.9249 35.5282ZM53.8345 35.4595C54.0188 35.5289 54.1807 35.6792 54.2732 35.8744C54.0106 35.852 54.248 35.9336 54.0195 35.6772C53.8828 35.5248 53.9004 35.6119 53.8345 35.4595ZM53.8345 35.4595C53.6787 35.4106 53.5005 35.2813 53.3856 35.0759C53.5311 35.1569 53.6359 35.2228 53.7855 35.333C53.9834 35.3337 53.8406 35.3051 53.8345 35.4595ZM30.4509 35.2079C30.3985 34.7229 30.3788 34.1801 30.4332 33.6911L30.5563 33.2843C30.791 33.315 31.5181 33.7571 31.6283 33.9189C31.7527 34.1005 31.8446 35.0365 31.8643 35.3249L30.4502 35.2079H30.4509ZM33.6185 35.9071L33.8429 35.3473C33.9755 35.1079 33.7524 35.4861 33.8898 35.2698L33.9517 35.1943C33.8994 35.4575 33.847 35.8506 33.6763 36.0234C33.6756 36.2934 33.109 38.0707 32.9947 38.4883C32.5737 40.0323 32.8982 40.6145 32.6893 41.2974C32.5683 40.2173 32.5785 38.9719 32.4996 37.8803C32.4594 37.3286 32.4023 36.7913 32.354 36.2356C32.3112 35.7336 32.1928 35.1514 32.2261 34.6556C32.2125 34.7549 32.52 36.2764 32.571 36.6192C32.6812 37.3552 32.7261 38.07 32.7553 38.8236C32.8628 38.6196 33.0723 37.6694 33.16 37.3484C33.2913 36.8695 33.5157 36.3349 33.6191 35.9078L33.6185 35.9071ZM50.0507 35.5194L48.1884 36.8171L48.2387 36.8634L49.9058 35.9805L49.9466 36.7314L50.233 38.7005L50.7472 38.5081L50.7587 38.2326L50.4527 35.7248L51.6144 35.569L51.9926 37.9728L52.519 37.7578L52.2211 35.5962C53.3454 35.6996 53.7372 36.356 53.8141 37.481C53.8324 37.6089 53.9324 37.798 53.7692 37.9381L53.6257 39.4508L52.6952 39.4412L52.5986 38.0415L53.4264 37.6966C53.5651 37.5674 53.1842 37.6123 53.5447 37.6197L53.457 37.5987L50.9254 38.5033C50.841 38.589 49.0229 39.4378 48.6155 39.699C47.8551 40.184 47.3076 40.605 46.5975 41.1145C47.013 40.1568 49.0515 37.6932 49.6473 37.2905L49.5868 37.2389C49.0073 37.6402 48.4441 38.2387 47.9068 38.7645C47.666 39.0005 46.5226 40.4091 46.3975 40.4819C46.6179 37.4007 45.8153 38.4203 46.2492 36.9062C46.5743 35.7704 47.0096 34.8855 47.3735 33.8414L49.712 34.3991L49.8119 35.4364L50.0126 35.469C50.1214 35.3602 50.0507 35.418 50.2058 35.3269C50.218 35.3194 50.3425 35.2616 50.3642 35.2534L50.3037 34.5501C50.5601 34.5753 50.8057 34.6467 51.0376 34.7018C51.3464 34.7753 51.5178 34.7256 51.5151 35.0371C51.2906 35.1133 50.9954 35.1412 50.7526 35.229C50.501 35.3194 50.2901 35.4582 50.0527 35.5194V35.5187L50.0507 35.5194ZM17.0264 35.4697C17.3236 35.4262 17.257 35.0793 17.3243 34.391L19.6702 33.8652C20.0185 34.8773 20.4687 35.771 20.7891 36.9076C21.2176 38.4257 20.4204 37.4062 20.6401 40.4833C20.4966 40.4003 18.7261 38.1115 17.4508 37.2395L17.3903 37.2899C17.9983 37.7122 20.0191 40.1452 20.4402 41.1151C19.7307 40.6064 19.2458 40.216 18.4228 39.699C18.0283 39.4508 16.1871 38.5808 16.1122 38.5046L13.2412 37.4946C13.21 36.3791 13.7677 35.6928 14.8485 35.601L14.5234 37.7823L15.0525 37.9619L15.4518 35.5289L16.5938 35.7438L16.2789 38.2333L16.302 38.5074L16.7972 38.6774L17.0903 36.7314L17.1665 35.9424L18.7914 36.8661L18.8513 36.8158L16.9856 35.5187C16.7475 35.4582 16.5367 35.3187 16.2857 35.2283C16.0422 35.1405 15.7477 35.114 15.5225 35.0371C15.5205 34.7256 15.6919 34.7746 16.0007 34.7018C16.2319 34.6467 16.4775 34.5753 16.738 34.5508L16.6822 35.2548C16.8577 35.3527 16.8774 35.3235 17.025 35.4697L17.0257 35.4704L17.0264 35.4697ZM29.181 34.3998C29.3994 34.6093 29.9088 34.9167 30.0387 35.1759C29.3864 35.1902 29.1273 35.2528 29.181 34.3998ZM37.0173 35.6323C37.0349 35.229 37.3111 35.1371 37.5961 34.8889C37.8423 34.6733 38.0967 34.4209 38.3035 34.2856L37.9715 35.6255L37.0173 35.6316V35.6323ZM34.7639 34.6039C35.5012 34.4733 35.8215 34.3386 36.4412 34.189L36.1242 35.5942L34.4122 35.5105L34.7639 34.6039ZM44.9079 43.9086C44.9059 41.9742 44.9066 40.3193 45.2276 38.4482C45.3718 37.6061 46.186 34.41 46.5873 33.9774C46.5342 34.5039 46.1105 35.6425 45.9465 36.2628C45.4561 38.117 45.3038 39.3222 45.1242 41.2505C45.0691 41.8402 45.0331 43.5502 44.9072 43.9086H44.9079ZM21.8087 38.4482C22.1297 40.3193 22.1297 41.9742 22.1283 43.9086C22.0025 43.5502 21.9665 41.8402 21.912 41.2505C21.7325 39.3215 21.5801 38.1163 21.0897 36.2628C20.9258 35.6425 20.5027 34.5039 20.449 33.9774C20.851 34.4093 21.6645 37.6061 21.8093 38.4482H21.8087ZM43.0817 35.1385C43.1197 34.8787 43.4911 34.3495 43.6564 34.0761C43.8679 33.7271 43.8054 33.8428 43.9611 33.7686L43.4741 35.0766L43.081 35.1385H43.0817ZM23.4982 34.9045L23.0955 33.7618C23.2289 33.8394 23.1846 33.7571 23.3567 34.04L23.873 34.927L23.4982 34.9052V34.9045ZM43.553 33.2014L42.8701 35.1412C42.5239 35.3936 39.2244 35.6296 38.5449 35.5874L39.0319 33.8972L43.5523 33.2007V33.2014H43.553ZM23.4764 33.2034C25.4517 33.2973 25.9903 34.0257 26.4794 33.1204L26.7977 34.9202L26.0822 34.9208C23.6125 34.9133 24.1532 35.08 23.8294 34.1692C23.722 33.8659 23.5288 33.468 23.4771 33.2034H23.4764ZM42.6933 43.9018C42.3994 43.2944 42.9313 38.74 43.115 37.9292C43.3197 37.026 43.5619 36.2397 43.87 35.4126C44.0706 34.8725 44.6209 33.4612 44.8861 33.1408C44.8175 33.517 44.578 33.9965 44.4393 34.3733C43.1109 37.9741 42.9449 39.9194 42.694 43.9018H42.6933ZM23.9192 37.9299C24.1049 38.7502 24.6348 43.2951 24.3416 43.9018C24.2131 41.8586 24.0845 40.0357 23.7029 38.0693C23.3207 36.0989 22.2147 33.5 22.1494 33.1415C22.7058 33.8128 23.6832 36.8872 23.9199 37.9299H23.9192ZM27.4207 35.0215C27.2711 34.5461 27.0732 33.0653 27.1031 32.5389C27.3466 32.6776 27.869 33.4455 28.0785 33.6748C28.4498 34.0815 28.7171 34.3012 28.6648 35.0841L27.4207 35.0208V35.0215ZM36.8377 34.9154C37.0826 33.4544 37.103 33.8897 37.8954 33.2279C38.8238 32.4532 38.1219 32.4212 39.3945 31.9362C39.1108 32.4872 37.2206 34.6773 36.8377 34.9154H36.837H36.8377ZM27.0854 31.0928C26.727 30.5324 26.4236 30.2059 26.8678 29.4652C27.1004 29.7121 27.0868 29.8515 27.4024 30.0746C27.7452 30.3168 27.7037 30.2134 27.9363 30.6167C28.1839 31.0466 28.5417 31.4778 28.8178 31.9464C29.0661 32.3668 29.7299 32.8075 29.785 33.198C29.8911 33.9523 29.9972 34.3148 30.1727 34.9684C29.7388 34.6916 28.4424 33.0245 28.037 32.4715C27.6894 31.9968 27.4289 31.6295 27.0847 31.0922H27.0854V31.0928ZM39.4502 31.1214C39.3509 31.3914 39.136 31.4649 38.8721 31.5567L39.3795 31.0976C39.8454 30.5297 39.9821 29.47 40.1372 28.6075L40.7691 26.0065C40.729 26.8023 40.4222 27.9362 40.2766 28.7551C40.1154 29.6618 39.9665 30.5494 39.4502 31.1214ZM36.7588 24.836C38.1123 24.6714 37.7287 25.3216 39.8835 24.2721C39.672 25.0543 37.9817 26.0079 36.7214 26.0079C35.9698 26.0079 34.8795 25.8521 34.5469 25.3937C34.7666 25.0468 35.3631 24.8196 35.8753 24.8196C36.5738 24.8196 36.6493 25.0012 37.1417 25.0761L36.7595 24.836H36.7588ZM28.5947 24.334C29.4089 24.9611 30.4577 24.8999 31.6616 24.8101L31.3882 24.9591L31.4147 25.0516C32.3431 24.7931 33.2042 24.6183 33.8218 25.3352C33.5253 25.9984 31.5963 26.0929 30.776 25.8882C29.5259 25.5753 29.1259 25.0992 28.5043 24.4238C28.4342 24.3571 28.4233 24.5081 28.392 24.2184C28.6831 24.2544 28.5267 24.2598 28.594 24.3347L28.5947 24.3353V24.334ZM33.0451 26.8697L33.1723 26.9322C33.0927 27.0234 33.3022 26.9751 33.0253 27.02L32.7553 27.1451L35.7243 27.3213L35.123 26.903C35.3515 26.8663 35.6216 26.8363 35.8657 26.8037C36.3235 26.7425 36.1643 26.637 36.2976 26.4745L37.9688 26.4772C38.0634 27.2336 38.0464 27.8151 37.8743 28.5306C37.7505 29.0442 37.4084 29.8651 37.3505 30.2569L37.3791 30.3344L38.4273 28.043L37.9743 30.6589C38.3932 30.3242 38.7905 29.3604 38.9843 28.7782C38.8435 30.093 37.0145 32.9728 36.2677 33.4728L36.4548 31.7961C36.297 32.2709 36.1215 32.7824 35.8984 33.2306C35.542 33.9455 35.6182 33.9291 34.6319 34.0142C34.7013 32.5756 34.5374 32.1083 34.2238 30.865C34.1027 30.3841 33.9762 29.8801 33.9245 29.3618C33.8511 28.6299 34.0272 28.3728 34.0551 27.8321C33.06 29.474 34.8128 32.681 34.0021 34.0006C33.2471 34.008 33.075 33.7999 32.7213 32.5674C32.4479 31.6166 32.5302 31.1697 32.4696 30.1964C32.0717 31.4098 32.3642 32.4913 32.5696 33.6571C31.4984 33.3816 30.8733 32.0879 30.4162 31.2119C29.3953 29.2516 29.7408 28.4068 29.4878 27.6376C29.3681 30.3909 29.8292 30.2433 30.3822 32.0512C30.4346 32.1029 30.4278 32.0696 30.4563 32.1471C30.5216 32.3178 30.455 32.194 30.4339 32.2301C30.2346 32.1138 30.4026 32.2403 30.253 32.0743L29.7564 31.4554L30.1156 32.4253C29.5612 32.1818 28.726 30.7528 28.4349 30.0093C27.8914 28.6218 27.9404 28.128 27.754 26.5847C27.5248 27.1798 27.7023 28.7381 27.7901 29.4169C27.8887 29.6468 27.8499 29.521 27.8254 29.6522L27.6574 29.5427C27.1004 28.3361 27.1555 28.1531 27.0698 26.6887C27.0024 25.5263 27.0004 24.4816 27.0412 23.3375C27.0467 23.3185 27.0691 23.2498 27.0711 23.2219C27.0725 23.2029 27.0963 23.2097 27.1208 23.1974L27.1609 23.3525L27.6384 25.0407L27.5105 22.8329C27.9084 23.2253 27.6561 23.6994 27.9948 24.3517C28.356 25.0475 28.6627 24.84 28.4995 25.6814C28.2227 27.1104 28.5002 28.0001 28.7382 29.2564C28.8457 29.0557 28.4927 26.3657 29.1028 25.5882C30.2373 26.1807 30.3142 26.2698 31.884 26.4153C31.9051 26.518 31.4378 26.5466 32.2166 26.7207C32.5105 26.786 32.7458 26.8547 33.043 26.869L33.0423 26.8697H33.0451ZM37.2159 20.3611C37.1642 20.6053 37.2608 20.4665 37.039 20.5672C37.1002 20.3496 37.0329 20.4441 37.2159 20.3611ZM36.1868 20.3645C36.1943 20.3774 36.2262 20.4686 36.2371 20.4883C36.3303 20.657 36.3255 20.6067 36.3759 20.6468L35.8372 20.5706C35.9079 20.4026 35.8161 20.4591 36.1167 20.2652C36.1766 20.3271 36.1324 20.2605 36.1868 20.3632V20.3638V20.3645ZM37.507 20.1557C37.5968 20.3033 37.6539 20.2632 37.4464 20.4523C37.4458 20.4516 37.2016 20.4026 37.507 20.1557ZM41.418 21.865C41.1513 20.1401 42.0199 19.9197 41.5418 18.2784C41.6533 18.3573 41.6098 18.2941 41.705 18.443C41.9777 18.8695 41.8642 19.6041 41.7261 20.0476C41.6302 20.353 41.3894 21.6568 41.418 21.865ZM26.0454 19.181C26.0448 18.6627 26.208 18.1383 26.6494 18.0322C26.5426 18.4662 26.1441 18.4818 26.3434 19.3429C26.393 19.5551 26.6134 20.4291 26.676 20.5686C26.6936 19.9095 26.5631 19.6612 26.7916 19.1008C26.9936 19.3436 26.8814 19.2987 26.8814 19.2994C26.9541 19.6048 26.6685 21.4807 26.5039 21.7881C26.3352 21.448 26.4005 20.8502 26.3155 20.4366C26.2284 20.0149 26.0448 19.649 26.0448 19.181H26.0454ZM39.2156 19.0001C39.1965 19.2463 39.1775 19.081 39.3006 19.1218L39.7366 18.2662C39.8264 19.1763 39.8372 20.7216 39.6141 21.6004C39.4618 22.2017 38.3803 23.1063 38.3538 23.8123L39.189 22.9832C39.17 23.3668 38.517 24.185 38.2742 24.3115C37.6301 24.6469 37.0009 24.3401 36.4126 24.2136C36.248 23.2267 35.5726 22.1255 35.6957 21.078L36.7384 21.378C37.0928 21.3644 36.8703 21.4093 36.9159 21.2549L36.3969 21.0066C36.9152 21.0039 37.4818 21.0447 37.8083 20.7781C38.4796 20.2305 37.8872 20.508 38.8877 20.2128L38.2416 19.8605L39.1856 19.8075C38.6708 19.3375 37.4859 19.1817 36.5609 19.4313C36.2187 19.5238 35.5875 19.8517 35.3753 19.8687C34.772 19.9183 35.0244 19.3116 34.6163 19.0702C34.2633 21.3963 35.4719 22.7451 35.7039 23.9626L35.357 24.0272L35.2903 23.5844C35.0196 24.1449 34.9611 24.4965 34.1102 24.5455C33.1845 24.5993 33.3063 23.966 32.9131 23.6783C32.8573 23.8157 32.89 23.8824 32.8709 23.9313C32.7846 24.1639 32.9975 23.9715 32.7648 24.0762C32.2772 24.2952 32.7778 23.2974 32.8247 23.1178C32.9356 22.69 33.0845 21.9296 33.1498 21.514L33.0838 21.4365L32.0717 24.0476C31.2419 24.4319 30.1237 24.6054 29.3599 24.1367C28.9049 23.8565 28.0343 22.8499 27.9764 22.1704C28.3369 22.4914 29.4259 23.3579 29.4946 23.7341L29.583 23.7225C29.3619 22.9859 28.3757 22.033 27.9356 21.3902C27.5643 20.8474 27.5289 20.5917 27.6126 19.7918C27.6418 19.5157 27.8037 18.3029 27.8989 18.1472L28.7246 19.1715L28.792 19.0987C28.3689 17.8404 27.7914 17.9336 28.0506 16.2597C28.1356 15.7115 28.1887 15.134 28.3145 14.6246C28.5097 13.8376 28.8171 13.9009 28.5056 13.254C28.8124 13.3384 29.1708 13.5676 29.5769 13.6927C31.0216 14.1382 31.7201 14.3205 33.3947 14.328C37.745 14.3477 37.2873 13.7635 38.6361 13.6424L39.2067 15.5503L39.0707 14.3749C39.3203 14.7477 39.5495 16.0924 39.6094 16.6453C39.7407 17.8588 39.3305 18.0968 39.2135 18.9994H39.2142L39.2156 19.0001ZM37.3859 11.2462C37.2336 10.7047 36.8812 9.72326 36.516 9.39609C37.0254 9.54165 37.5736 10.6782 37.5158 11.5645L37.3852 11.2462V11.2455L37.3859 11.2462ZM39.8753 9.67292C40.6004 10.6272 40.7412 13.6084 40.7412 15.066H40.6575C40.6575 14.094 40.4344 11.8617 40.2011 10.8544C40.059 10.2436 39.8638 9.8865 39.8223 9.71237L39.3115 9.18932C39.5441 9.26142 39.7964 9.43078 39.8753 9.67224V9.67292ZM35.3352 8.84516C36.2126 9.46411 36.871 10.4361 36.9839 11.8093C36.9526 11.7692 36.9363 11.7604 36.8955 11.6849L36.8561 11.5944C36.8309 11.5305 36.8071 11.4339 36.784 11.3618C36.4772 10.4266 35.9304 9.57566 35.2774 8.91453L35.3352 8.84584V8.84516ZM37.9219 10.1728C36.9894 9.05601 37.1186 9.41786 36.3514 8.70028C37.0084 8.84448 37.775 9.58722 37.9219 10.1728ZM35.4665 13.0343L35.3624 13.1615L35.3366 12.9894L35.072 12.0787L34.736 13.4336L34.4972 12.999L34.1252 13.5111L33.7314 12.0848L33.3151 13.4084C33.2056 12.2664 33.1281 12.0583 32.5111 11.3393C32.5247 11.8025 33.0614 12.3392 32.4594 13.5172L32.2275 12.7895L31.7732 13.4173C31.6943 13.5411 31.8425 13.4771 31.6194 13.5628L31.5698 13.4064L31.2637 12.5398L31.0175 12.8228C31.0012 11.8991 30.3768 10.9836 29.8435 10.7299C30.1271 11.2339 30.4291 11.5781 30.3509 12.4106L30.2169 12.263L30.0428 12.9105L29.3137 12.2208L29.2579 12.9479C28.4634 12.8446 28.2301 11.8508 27.8356 11.3448C27.8254 11.9542 28.0295 12.0896 28.1247 12.4861C28.19 12.7561 27.9628 12.2936 28.0179 12.8371C28.0438 13.0955 28.1703 13.1608 28.1213 13.4193C28.09 13.5846 27.8254 14.0961 27.7363 14.4674C27.6479 14.8361 27.6438 15.3612 27.4826 15.6367L27.3976 14.8341L27.2378 15.721L27.2371 12.1168L27.767 13.1289C27.6534 11.9263 27.2595 11.4427 27.8975 10.1395C28.241 10.1728 29.0069 10.8381 29.1205 11.274L29.2524 11.2536C29.0049 10.3511 28.3349 9.97628 28.2227 9.6736C28.6342 9.63756 28.4961 9.69401 28.777 9.57634C29.0477 9.46343 29.8449 9.66884 30.1251 9.75659L29.0171 9.05805L29.8986 9.21857L29.4925 8.8472C30.4659 8.9465 31.161 10.0409 31.6392 10.6721C31.4018 9.5743 30.7379 9.37229 30.4149 8.73361L31.4582 8.9193L30.8155 8.49487L31.4657 8.41665C31.5487 8.36292 31.5698 8.3568 31.6636 8.30578C31.8595 8.19968 31.4528 8.25817 31.8956 8.2262L33.6749 8.43637L33.0628 8.13506C34.285 8.2058 37.1853 11.1312 36.3004 12.5058C36.1385 12.0991 36.1412 11.6733 35.9059 11.1645C35.4563 10.1919 34.2082 9.04853 33.275 8.77578C33.8035 9.36549 34.2837 9.46683 34.9237 10.4075C35.5345 11.3047 35.5331 11.878 35.4678 13.0357L35.4672 13.035L35.4665 13.0343ZM17.695 32.5579C16.8489 32.9137 15.4681 33.7339 14.7743 34.2053C13.9309 34.7787 13.1644 35.4691 12.7277 36.4669C12.4944 37.0008 12.3434 37.6368 12.3495 38.2952C12.357 39.0869 12.1047 39.2732 11.9033 39.9827C11.498 41.4137 11.9788 42.3333 11.6925 43.7984C11.4905 44.835 11.0939 46.2198 10.7783 47.2237C10.5124 48.0685 10.628 49.9737 10.9001 50.9089C11.5456 53.1263 12.7046 54.9654 14.3839 56.0149C16.8251 57.5406 18.5051 57.3433 21.7196 57.1413C26.797 56.823 32.3608 56.2693 37.2825 55.2314C38.5232 54.9695 39.6155 55.5279 40.8697 55.7075C42.1934 55.8973 43.668 55.9224 45.0215 55.8456C47.6055 55.6987 50.3057 55.411 52.5285 54.5893C56.9775 52.9453 56.7436 49.9267 56.5388 45.8722C56.4701 44.5221 56.4647 43.0577 56.4361 41.7273C56.3667 38.4693 56.6449 37.0022 54.618 34.9766C53.7311 34.0897 53.0312 33.9149 51.7627 33.4449C50.6499 33.0334 49.6943 32.6239 48.6488 32.2444C46.2771 31.3839 44.4712 30.8561 41.8492 30.3841C40.9527 30.2229 41.1976 29.8985 40.8813 29.1353C40.6752 28.6374 40.9418 27.9287 41.0663 27.3934C41.4533 25.7351 41.4003 25.2549 41.384 23.5436C41.3812 23.275 41.8914 22.6751 41.9669 22.0119C42.0512 21.2725 42.0104 20.8093 42.2131 20.1237C42.3933 19.5143 42.4423 18.8314 42.2063 18.2465C41.9016 17.4922 41.6914 17.5629 41.1309 17.1691C41.0677 16.5596 41.2003 15.7632 41.1989 15.098C41.1976 14.4035 41.1629 13.7179 41.0983 13.0656C40.914 11.1931 40.8296 9.19476 39.17 8.55608C38.6163 8.34319 38.1327 8.03371 37.6859 7.87047C34.5693 6.73391 28.9919 7.23792 27.3282 9.33828C25.9557 11.0714 27.0011 14.9116 26.578 17.1099C26.4978 17.3038 24.7497 17.6561 25.4095 20.0788C25.7673 21.3916 25.4517 22.4982 26.4236 23.3233C26.4699 24.4986 26.4066 25.7113 26.4862 26.9622C26.5909 28.6095 26.2515 27.4981 25.7781 29.9746C24.9177 29.9746 24.2321 30.1154 23.7029 30.5235C22.6323 31.3493 22.8922 30.7772 21.674 31.1391C21.0299 31.3309 18.0602 32.4144 17.6936 32.5586V32.5579H17.695Z" fill="#80BD00"/>
<path fill-rule="evenodd" clip-rule="evenodd" d="M52.2151 49.7694L52.326 49.813C52.5837 49.9524 52.2403 49.6538 52.3919 49.8891C52.3335 49.9116 52.4858 49.9864 52.243 49.9041C52.0097 49.8252 52.2525 49.9286 52.1342 49.8082C49.9576 49.2423 49.2312 49.2294 46.9771 49.8089C45.2821 50.2442 43.9504 50.7047 42.0949 50.9046C40.2931 51.0992 38.3628 50.9951 36.6419 50.6128C35.7468 50.4136 32.7432 49.4736 32.3623 48.9417C34.0342 49.3083 35.2469 49.7626 37.1616 49.981C39.0606 50.1966 40.8168 50.1619 42.675 49.9109C45.5671 49.5205 49.8025 47.7745 52.2151 49.7688H52.2144L52.2151 49.7694ZM52.9442 46.3393L53.0177 46.2856C52.1117 44.6321 49.4924 44.175 47.073 44.5185C44.8074 44.8402 42.658 45.4327 40.4495 45.9088C38.0587 46.4244 35.7747 46.7053 33.1635 46.6168C31.44 46.5584 27.0325 46.1455 25.7837 46.8712C26.0938 47.1066 29.4206 48.3071 30.1898 48.6472C31.6012 49.2709 33.0533 49.8939 34.4803 50.5441C37.4874 51.914 40.8393 52.7839 44.8203 52.6241C47.9708 52.4976 53.2326 51.8956 54.257 49.6518C54.6644 48.7587 52.2552 46.4672 51.7465 46.1258C50.2147 45.0953 49.1421 44.8763 46.9145 44.7926C47.6824 44.4512 49.6155 44.7831 50.412 45.0157C51.4404 45.3157 52.275 45.8156 52.9449 46.34H52.9442V46.3393Z" fill="#FEFEFE"/>
<path fill-rule="evenodd" clip-rule="evenodd" d="M28.4995 54.4383C26.7318 54.4322 25.4537 54.3859 23.8173 54.0051C22.9745 53.8085 20.4803 53.0249 20.1294 52.5413C21.204 52.6468 22.5671 53.014 23.7574 53.1902C25.0429 53.3807 26.2563 53.4616 27.5929 53.5351C29.8544 53.6554 31.2848 53.4677 33.6301 53.3222C32.4438 53.9221 29.9857 54.4111 28.4995 54.4383V54.439V54.4383ZM14.0697 52.5624C14.0051 50.6947 15.6899 49.0208 16.7537 48.3365C19.1513 46.7939 20.7306 47.1285 22.0175 46.6946C21.0551 46.1675 17.9011 47.2428 17.1223 47.6897C15.4063 48.6752 13.363 51.0708 13.8902 53.2514C14.1269 54.2295 14.3908 54.4737 15.3648 54.758C16.2476 55.0165 17.0387 55.0954 18.0419 55.0899C19.1533 55.0845 19.7158 54.7682 20.5817 54.6811C19.7981 55.3423 17.9889 55.4375 16.7741 55.6327C18.3392 56.4265 24.8055 55.8177 26.859 55.6089C28.2941 55.4627 35.3434 54.4281 36.1059 53.9724C35.6393 53.4738 34.2313 52.5998 33.6525 52.187C32.4887 51.3572 29.6878 49.4227 28.4907 48.9459C27.4664 48.5385 26.4924 48.1699 25.4599 47.7761C23.6894 47.1006 19.8267 47.4455 18.0344 48.1706C17.0516 48.5685 16.0484 49.1486 15.4777 49.8057C14.5193 50.9082 14.6084 51.0858 14.0704 52.5624V52.5617L14.0697 52.5624Z" fill="#FEFEFE"/>
<path fill-rule="evenodd" clip-rule="evenodd" d="M28.7576 19.8027C30.1247 18.6525 32.3006 19.8224 32.5196 19.8618C33.0753 19.9612 32.9597 19.3905 33.2739 19.1211C34.0017 20.3624 31.5912 21.7595 30.6376 21.4351L31.6034 21.0113C31.0933 20.9936 30.4764 21.0528 30.1302 20.7767C29.4588 20.2421 30.0478 20.4971 29.0609 20.2115L29.7336 19.8571L28.7569 19.802L28.7576 19.8013V19.8027ZM33.614 17.152C34.1704 17.118 34.7199 17.1514 35.2695 17.1092C35.7416 17.0731 36.3809 16.931 36.7822 16.9378C36.2034 17.3887 34.8056 17.4785 33.9731 17.3085C33.718 17.2568 33.716 17.2411 33.614 17.152ZM30.36 15.9189C30.9348 15.9638 31.5435 16.1243 32.1836 16.1828C33.5364 16.308 34.6771 16.31 36.0299 16.1502C36.4619 16.0991 37.4195 15.8795 37.7181 15.8985C37.6535 15.9101 36.7815 16.2236 36.064 16.3562C34.4941 16.646 31.4102 16.6222 30.36 15.9182V15.9189ZM28.7909 19.0973C28.831 19.1395 28.8371 19.1368 28.8834 19.2123C28.9433 19.3109 28.8582 19.0633 28.9058 19.3007C28.7038 19.2769 28.8154 19.3279 28.7242 19.1701L27.8992 18.1465C27.804 18.3015 27.6421 19.515 27.6128 19.7911C27.5292 20.591 27.5639 20.8461 27.9352 21.3888C28.3753 22.0323 29.3622 22.9845 29.5826 23.7211C29.6554 23.8381 29.6472 23.5382 29.6329 23.8878L29.4949 23.7334C29.4262 23.3572 28.3365 22.49 27.9761 22.1697C28.0345 22.8485 28.9045 23.8558 29.3595 24.1354C30.1233 24.6047 31.2409 24.4305 32.0714 24.0469L33.0828 21.4358C33.1528 21.2065 33.0896 21.2929 33.2895 21.1923C33.2705 21.28 33.2753 21.3058 33.2344 21.397C33.1902 21.4977 33.1875 21.465 33.1481 21.514C33.0828 21.9296 32.9338 22.69 32.8229 23.1178C32.7767 23.2974 32.2761 24.2952 32.7631 24.0762C32.9957 23.9721 32.7828 24.1639 32.8692 23.9313C32.8876 23.8816 32.8549 23.815 32.9107 23.6783C33.3045 23.9653 33.1828 24.5985 34.1085 24.5455C34.9594 24.4965 35.0179 24.1442 35.2879 23.5837L35.3545 24.0265L35.7014 23.9612C35.4695 22.7444 34.2608 21.3949 34.6138 19.0688C35.0219 19.3102 34.7689 19.9169 35.3729 19.8673C35.5851 19.8496 36.2163 19.5224 36.5584 19.4299C37.4828 19.1803 38.6676 19.3361 39.1832 19.8061L38.2391 19.8591L38.8846 20.2115C37.8841 20.5066 38.4765 20.2291 37.8059 20.7767C37.4794 21.0426 36.9121 21.0025 36.3945 21.0052L36.9128 21.2535L37.3658 21.4276C37.2379 21.5004 37.0869 21.4861 36.8849 21.4358C36.736 21.399 36.7632 21.3888 36.7353 21.3759L35.6933 21.0753C35.5702 22.1234 36.2456 23.2246 36.4102 24.2115C36.9985 24.338 37.6277 24.6448 38.2718 24.3095C38.5139 24.183 39.1662 23.3647 39.1859 22.9811L38.3507 23.8102C38.3772 23.1035 39.4587 22.1996 39.611 21.5983C39.8341 20.7189 39.8233 19.1735 39.7342 18.2641L39.2982 19.1198C39.2043 19.3157 39.1975 19.4415 39.0254 19.534C39.037 19.4252 39.0445 19.3612 39.0771 19.2497C39.156 18.9803 39.1825 19.032 39.2131 18.998C39.3301 18.0961 39.7396 17.8567 39.6083 16.644C39.5491 16.091 39.3192 14.7463 39.0696 14.3729L39.2057 15.5482L38.635 13.6403C37.2862 13.7614 37.744 14.3457 33.3936 14.3259C31.7183 14.3178 31.0205 14.1362 29.5758 13.6907C29.1698 13.5655 28.8113 13.337 28.5045 13.252C28.8161 13.8988 28.5086 13.8349 28.3134 14.6218C28.1869 15.1319 28.1339 15.7087 28.0488 16.2569C27.7897 17.9315 28.3672 17.8377 28.7902 19.096L28.7895 19.0967L28.7909 19.0973Z" fill="#FDFDFD"/>
<path fill-rule="evenodd" clip-rule="evenodd" d="M31.7868 32.196L31.7263 32.3783C31.5984 32.2273 31.6453 32.3449 31.6372 32.132C31.6181 31.0567 29.7694 29.1291 30.6128 28.0401C30.6264 28.9958 30.9033 29.4345 31.2658 30.148C31.6814 30.9649 31.7283 31.1812 31.7875 32.196H31.7868ZM35.2482 30.7588C35.1686 31.0036 35.0679 31.6736 34.9802 31.8464C34.7061 30.62 35.2999 29.7705 35.4951 28.6339C35.5883 28.0898 35.4652 27.9136 35.4522 27.4756C36.3079 28.1803 35.476 30.0623 35.2482 30.7588ZM27.1616 23.3517L27.0413 23.3368C27.0004 24.4801 27.0025 25.5249 27.0698 26.688C27.1548 28.1524 27.1004 28.3353 27.6568 29.542C27.8275 29.5501 27.7786 29.5882 27.7894 29.4161C27.7024 28.7373 27.5242 27.179 27.7541 26.5839C27.9404 28.1272 27.8915 28.621 28.4342 30.0092C28.7254 30.7527 29.5606 32.1817 30.1149 32.4252L29.7558 31.4553L30.2523 32.0742L30.3809 32.0518C29.8272 30.2439 29.3668 30.3908 29.4865 27.6382C29.7395 28.4068 29.3933 29.2522 30.4149 31.2125C30.8713 32.0885 31.497 33.3829 32.5683 33.6577C32.3622 32.4919 32.0704 31.4097 32.4683 30.197C32.5282 31.1703 32.4459 31.6172 32.7193 32.568C33.0737 33.8005 33.2451 34.0086 34.0001 34.0012C34.8108 32.6816 33.058 29.4746 34.0531 27.8327C34.0252 28.3734 33.8491 28.6312 33.9225 29.3624C33.9742 29.8807 34.1007 30.3847 34.2218 30.8656C34.5354 32.1089 34.6986 32.5769 34.6299 34.0148C35.6162 33.9297 35.54 33.9467 35.8964 33.2312C36.1195 32.783 36.295 32.2715 36.4528 31.7967L36.2657 33.4733C37.0132 32.9734 38.8415 30.0936 38.9823 28.7788C38.7885 29.3617 38.3913 30.3248 37.9723 30.6595L38.4253 28.0435L37.3771 30.335L37.2037 30.6615C37.1125 30.4636 37.2656 30.3228 37.3492 30.2568C37.4064 29.865 37.7485 29.0441 37.873 28.5305C38.045 27.815 38.062 27.2341 37.9675 26.4771L36.2963 26.4744C36.163 26.6363 36.3222 26.7424 35.8644 26.8029C35.6196 26.8356 35.3502 26.8655 35.1217 26.9022L35.7229 27.3212L32.7533 27.145L33.0233 27.0199L33.0431 26.8689C32.7458 26.8546 32.5098 26.7859 32.2167 26.7206C31.4379 26.5465 31.9051 26.5179 31.8834 26.4152C30.3142 26.2697 30.2367 26.1806 29.1028 25.5881C28.4934 26.3662 28.8457 29.0556 28.7383 29.2563C28.4995 27.9993 28.2227 27.1104 28.4989 25.6813C28.6614 24.8399 28.3547 25.0474 27.9942 24.3516C27.6561 23.6993 27.9071 23.2252 27.5099 22.8328L27.6384 25.0406L27.161 23.3524L27.1616 23.3517Z" fill="#FCFCFC"/>
<path fill-rule="evenodd" clip-rule="evenodd" d="M33.6963 11.4651C33.7616 11.5583 33.7235 11.3311 33.786 11.6358C33.8282 11.844 33.7677 11.7596 33.7582 11.7868L33.6167 11.6012C33.5446 11.4277 33.2752 11.0421 33.1161 10.8169C32.9188 10.5374 32.6964 10.3156 32.5475 10.0551C32.9984 10.2034 33.5296 10.9271 33.6976 11.4651H33.6969H33.6963ZM30.5654 10.1354C30.8076 10.2333 31.2497 10.7101 31.4163 10.9999C31.6054 11.3284 31.8306 11.8175 31.8088 12.3038C31.7034 12.1501 31.6313 11.8977 31.5394 11.7005C31.1409 10.8455 30.5981 10.3741 30.5505 10.2374C30.3811 10.1415 30.3321 10.1238 30.241 9.94426C30.373 9.97487 30.3206 9.9429 30.4301 10.0062C30.5314 10.0647 30.5437 10.1123 30.5648 10.1361H30.5654V10.1354ZM34.3016 11.3529C33.9609 10.7816 33.6174 10.2456 33.2147 9.82727C32.5597 9.14778 31.9312 8.85191 31.7571 8.64446C32.4658 8.6737 33.2399 9.23961 33.5405 9.57153C33.7765 9.83203 34.52 10.9373 34.3009 11.3529H34.3016ZM31.8911 8.22275L31.8993 8.40028L31.4605 8.41252L30.811 8.49142L31.4537 8.91517L30.4104 8.72948C30.7334 9.36816 31.3973 9.57017 31.6347 10.668C31.1565 10.0374 30.4614 8.94237 29.4881 8.84307L29.8941 9.21444L29.0126 9.05392L30.1206 9.75245C29.8404 9.66471 29.0432 9.45862 28.7725 9.57221C28.4916 9.68988 28.629 9.63274 28.2182 9.66947C28.3304 9.97215 29.0004 10.3469 29.248 11.2495C29.2527 11.2543 29.3119 11.259 29.3289 11.3849C29.3609 11.6277 29.2996 11.5093 29.284 11.5399L29.1153 11.2692C29.0017 10.8332 28.2359 10.168 27.8924 10.1347C27.2537 11.4372 27.6489 11.9215 27.7618 13.1234L27.2319 12.112L27.2326 15.7155L27.3925 14.8286L27.4775 15.6318C27.638 15.3564 27.6428 14.832 27.7312 14.4626C27.8203 14.0913 28.0849 13.5791 28.1162 13.4145C28.1658 13.1553 28.0386 13.09 28.0128 12.8323C27.9577 12.2881 28.1842 12.7513 28.1196 12.4813C28.0237 12.0854 27.8203 11.9501 27.8305 11.3407C28.225 11.8467 28.4583 12.8397 29.252 12.9431L29.3078 12.2167L30.037 12.9064L30.2111 12.2589L30.3451 12.4065C30.424 11.5746 30.1213 11.2305 29.8377 10.7265C30.3709 10.9795 30.996 11.8964 31.0116 12.8193L31.2579 12.5357L31.5639 13.4029C31.6864 13.4601 31.5442 13.4485 31.7673 13.4138L32.2217 12.7867L32.4536 13.5138C33.0555 12.3351 32.5189 11.7984 32.5053 11.3359C33.1215 12.0548 33.1997 12.2636 33.3093 13.405L33.7255 12.0814L34.1187 13.5077L34.4907 12.9955L34.7294 13.4301L35.0654 12.0759L35.33 12.986L35.4606 13.0309C35.5259 11.8739 35.5266 11.3005 34.9165 10.4027C34.2765 9.46202 33.7956 9.36068 33.2678 8.77097C34.2016 9.04372 35.4491 10.1871 35.8987 11.1597C36.134 11.6685 36.1313 12.0943 36.2932 12.501C37.1781 11.1257 34.2778 8.20099 33.0555 8.13025L33.6677 8.43156L31.8884 8.22139L31.8897 8.22207L31.8911 8.22275Z" fill="#F9F9F9"/>
<path fill-rule="evenodd" clip-rule="evenodd" d="M41.6013 39.0522L41.721 38.7244C41.7944 38.955 41.7053 38.5605 41.7434 38.821C41.7509 38.8713 41.7427 39.0135 41.7427 39.0679L42.2624 42.9326C42.4243 42.1715 42.3903 40.9377 42.4515 40.1269C42.5243 39.1644 42.7025 38.3693 42.812 37.4661C42.1175 37.4919 41.1857 37.6633 40.4497 37.7272C39.9804 37.7674 38.1848 37.6579 38.0739 38.0095C37.8209 38.8148 37.6196 41.8736 37.5869 42.8571L41.6468 42.9856L41.6013 39.0529L41.6006 39.0536L41.6013 39.0522Z" fill="#FDFDFD"/>
<path fill-rule="evenodd" clip-rule="evenodd" d="M25.2887 39.0678C25.2887 39.008 25.2806 38.8788 25.2874 38.8216C25.3268 38.5013 25.233 39.0277 25.3098 38.725L25.4295 39.0529L25.4139 42.9911L27.4347 42.8401C27.6442 40.8132 27.519 39.1223 27.2469 37.2083L24.1943 37.2232L24.2664 37.2157L24.7881 42.923L25.2874 39.0678L25.288 39.0672L25.2887 39.0678Z" fill="#FDFDFD"/>
<path fill-rule="evenodd" clip-rule="evenodd" d="M49.5836 37.2388L49.8509 36.9681C49.8536 36.9552 49.8624 36.9504 49.8679 36.9423L49.944 36.7314L49.9032 35.9805L48.2361 36.8634C48.1688 36.9504 48.2212 36.9062 48.1362 36.981L47.824 37.1184C47.9321 36.9293 47.9926 36.8926 48.1851 36.8171L50.0474 35.5193L50.0073 35.4697L49.8067 35.437L49.7067 34.3998L47.3682 33.842C47.0043 34.8868 46.569 35.7717 46.2439 36.9076C45.8107 38.4216 46.6126 37.4021 46.3929 40.4832C46.518 40.4104 47.6614 39.0018 47.9022 38.7658C48.4395 38.2393 49.0027 37.6408 49.5822 37.2395H49.5829L49.5836 37.2388Z" fill="#FDFDFD"/>
<path fill-rule="evenodd" clip-rule="evenodd" d="M17.024 35.4698L16.9839 35.5195L18.8496 36.8166C19.0305 36.8975 19.1033 36.9363 19.2094 37.1226C18.9856 37.0641 18.9319 37.0417 18.7891 36.8662L17.1641 35.9432L17.088 36.7322L17.1641 36.9424C17.2634 37.0934 17.3022 37.0363 17.4484 37.2396C18.7238 38.1116 20.4942 40.4004 20.6378 40.4827C20.4181 37.4063 21.2152 38.4252 20.7867 36.907C20.4664 35.7705 20.0161 34.876 19.6678 33.8646L17.3219 34.3904C17.2546 35.0794 17.3206 35.4263 17.024 35.4691V35.4698Z" fill="#FDFDFD"/>
<path fill-rule="evenodd" clip-rule="evenodd" d="M52.1342 49.809L52.2151 49.7696C49.8025 47.7753 45.5671 49.5213 42.675 49.9117C40.8168 50.1627 39.0606 50.1981 37.1609 49.9818C35.2462 49.7635 34.0335 49.3091 32.3623 48.9432C32.7432 49.4751 35.7468 50.4144 36.6419 50.6137C38.3621 50.9959 40.2924 51.1007 42.0949 50.9055C43.9497 50.7048 45.2821 50.2443 46.9764 49.8097C49.2312 49.2302 49.9569 49.2431 52.1335 49.809L52.1342 49.8097V49.809Z" fill="#80BD00"/>
<path fill-rule="evenodd" clip-rule="evenodd" d="M29.8934 41.979L29.8703 42.681L32.2237 42.683L32.2244 39.7678L32.1278 37.6096L29.7104 37.3885L29.7805 37.3988L29.8934 41.979Z" fill="#FEFEFE"/>
<path fill-rule="evenodd" clip-rule="evenodd" d="M35.5992 38.2244L35.6482 37.821C35.4285 37.8217 35.3788 37.8578 35.2251 37.751L33.8484 37.7034C33.6349 38.2727 33.0241 42.1714 33.169 42.7298L35.1863 42.7856L35.5999 38.2251L35.5992 38.2244Z" fill="#FDFDFD"/>
<path fill-rule="evenodd" clip-rule="evenodd" d="M46.6863 42.0977L46.7556 42.178C47.0202 42.125 47.7875 41.7624 48.1731 41.6359C48.6778 41.47 49.2587 41.3006 49.83 41.3203C49.8429 41.3115 49.862 41.2815 49.8701 41.2945C49.8783 41.3074 49.9014 41.2747 49.9137 41.2707C49.998 41.2414 49.915 41.2591 50.0191 41.2353L50.7986 41.2026C50.651 41.3217 50.3374 41.3768 50.0905 41.3979C49.9171 41.47 49.7804 41.6992 49.6341 41.8835C49.2702 42.3426 49.2947 41.9842 48.9798 42.1971L50.2422 42.2998C49.9667 42.4453 49.428 42.3324 49.1668 42.4909C48.8887 42.6596 49.2893 42.6786 48.3262 42.914L48.3166 42.6167C47.5957 42.7684 46.2278 43.2255 45.936 43.7533L48.0833 43.4649C48.2751 42.9541 48.0983 42.95 48.8322 42.9099L48.6554 43.4533L50.5877 43.6138L50.7176 42.9711L49.9443 42.9167L49.0832 42.8949C49.3811 42.7752 49.8423 42.7269 50.249 42.7317L51.41 42.7357L51.3679 42.6637C50.6129 42.7514 50.787 42.5569 50.7646 42.4351C50.8999 42.329 50.4925 42.3106 51.3794 42.3719C51.7692 42.3589 51.4964 42.4317 51.5678 42.2175C51.306 42.3236 51.1801 42.2583 50.8605 42.2059C50.9312 41.9808 51.2407 41.6543 51.3924 41.4693C51.7066 41.0863 51.7025 41.0925 52.3473 41.1469L52.3786 41.0639C51.3699 41.0142 52.0249 40.9503 52.0991 39.8682L50.8047 39.9919C50.3912 40.7701 50.6306 41.1544 49.494 41.2326L50.1538 40.2021L49.7525 40.181C50.3197 39.9552 50.2959 39.9552 50.2769 39.2784C49.3546 39.5879 47.2882 41.5169 46.6876 42.0984L46.6863 42.0977Z" fill="#F9F9F9"/>
<path fill-rule="evenodd" clip-rule="evenodd" d="M14.6567 41.0619L14.688 41.1455C15.3294 41.0918 15.3301 41.0843 15.643 41.4672C15.7981 41.657 16.1007 41.9719 16.1742 42.2039C15.898 42.2487 15.7981 42.2814 15.5035 42.2549L15.6559 42.3698C15.7076 42.3664 15.9613 42.3365 15.9926 42.3372C16.4381 42.3433 16.1443 42.3344 16.2701 42.4331C16.2504 42.5392 16.3898 42.7459 15.6668 42.6616L15.6239 42.7344L16.7857 42.7303C17.1917 42.7255 17.6529 42.7738 17.9501 42.8704L17.0897 42.916L16.3286 42.9684L16.4483 43.6336L18.3575 43.4309L18.1984 42.9099C18.9357 42.9493 18.7588 42.9541 18.9493 43.471L21.0986 43.7478C20.8055 43.2248 19.4377 42.7684 18.7677 42.6113L18.7466 42.9092C17.8787 42.7718 18.0773 42.6181 17.8665 42.4902C17.6094 42.3344 17.0972 42.4181 16.787 42.3283L18.0549 42.2141C17.7406 41.9855 17.7624 42.3406 17.3985 41.8849C17.2509 41.6998 17.1176 41.472 16.9441 41.3979C16.6877 41.3754 16.4 41.3203 16.2368 41.2026L17.1645 41.2951C17.1727 41.2829 17.1911 41.3128 17.204 41.321C17.7644 41.2999 18.3711 41.4768 18.865 41.6373C19.2615 41.7658 20.0029 42.1236 20.279 42.1794L20.3491 42.0984C19.7458 41.5135 17.6821 39.5879 16.7598 39.2784L16.8047 39.9518L17.5604 40.2695L16.9067 40.1416L17.5515 41.2271C16.1932 41.1401 16.6932 40.4912 16.1987 40.0273L14.941 39.8437C15.0186 40.9557 15.6613 41.0136 14.6588 41.0632L14.6581 41.0625L14.6567 41.0619Z" fill="#F9F9F9"/>
<path fill-rule="evenodd" clip-rule="evenodd" d="M28.4993 54.4375C29.9854 54.4103 32.4436 53.9213 33.6298 53.3214C31.2846 53.4662 29.8542 53.6546 27.5926 53.5343C26.2561 53.4601 25.0426 53.3792 23.7571 53.1894C22.5668 53.0139 21.2038 52.646 20.1284 52.5405C20.4801 53.0241 22.9736 53.8077 23.8163 54.0043C25.4528 54.3858 26.7308 54.4314 28.4986 54.4375V54.4368L28.4993 54.4375Z" fill="#80BD00"/>
<path fill-rule="evenodd" clip-rule="evenodd" d="M39.0321 33.8956L38.5444 35.5859C39.2239 35.628 42.5234 35.392 42.8696 35.1397L43.5532 33.1998L39.0328 33.8956H39.0321Z" fill="#FDFDFD"/>
<path fill-rule="evenodd" clip-rule="evenodd" d="M28.0866 41.5387L28.0349 42.7481L29.2218 42.6773C29.5945 42.3733 29.1966 38.0889 29.1354 37.3747L27.8594 37.2489L28.0872 41.5387H28.0866Z" fill="#FDFDFD"/>
<path fill-rule="evenodd" clip-rule="evenodd" d="M15.0183 48.0732C15.4209 47.9161 16.0508 47.0271 17.543 46.4489C18.9354 45.9089 19.37 45.964 20.9106 45.7048L20.8405 45.2579C16.8588 44.6097 14.7067 46.9529 14.4741 47.0563L15.0176 48.0739H15.0183V48.0732Z" fill="#FCFCFC"/>
<path fill-rule="evenodd" clip-rule="evenodd" d="M15.6229 42.7346L15.6657 42.6618L15.6548 42.37L15.5025 42.2551C15.4902 42.1578 14.808 41.2892 14.6869 41.1457L14.6557 41.062L14.3353 39.9112L14.3278 39.8357L13.3232 39.986C13.1042 41.3491 12.7627 41.7647 12.8797 43.3474L15.6229 42.7353V42.7346Z" fill="#FDFDFD"/>
<path fill-rule="evenodd" clip-rule="evenodd" d="M52.3772 41.062L52.3466 41.1457C52.1739 41.3532 52.0841 41.5048 51.9549 41.6647C51.8753 41.7619 51.8243 41.8184 51.7352 41.9272C51.5964 42.0959 51.6114 42.0524 51.5665 42.2163C51.4957 42.4312 51.7678 42.3578 51.3781 42.3707L51.3672 42.6618L51.41 42.7346L54.1552 43.3365C54.2681 41.7755 53.9423 41.3436 53.7022 40.0098L52.7037 39.8357L52.6962 39.9112L52.3766 41.062H52.3772Z" fill="#FDFDFD"/>
<path fill-rule="evenodd" clip-rule="evenodd" d="M16.1107 38.5037L16.2767 38.233L16.5916 35.7429L15.4496 35.528L15.0503 37.9609L14.5212 37.7813L14.8463 35.6001C13.7655 35.6912 13.2078 36.3775 13.239 37.4936L16.11 38.5037V38.503L16.1107 38.5037Z" fill="#FCFCFC"/>
<path fill-rule="evenodd" clip-rule="evenodd" d="M50.757 38.2332L50.9229 38.5039L53.4552 37.5993C53.5831 37.5006 53.3355 37.6 53.5783 37.517C53.6973 37.4762 53.6728 37.4938 53.8116 37.4802C53.7354 36.3552 53.3423 35.6989 52.2186 35.5955L52.5166 37.7571L51.9908 37.972L51.6126 35.569L50.4502 35.7247L50.757 38.2325V38.2332Z" fill="#FCFCFC"/>
<path fill-rule="evenodd" clip-rule="evenodd" d="M31.8021 20.2923C31.8041 20.274 31.8163 20.2699 31.8245 20.2597C31.9463 20.3325 32.0394 20.357 32.1122 20.5603L31.6089 20.6379L31.8021 20.2923ZM31.3219 20.5529C31.345 20.3706 31.3599 20.4025 31.5103 20.357C31.4525 20.5243 31.4885 20.4774 31.3219 20.5529ZM30.4948 20.4488C30.4329 20.3719 30.3227 20.3835 30.4342 20.1652C30.5553 20.2379 30.5077 20.0679 30.5505 20.3053C30.6118 20.6426 30.5744 20.31 30.4948 20.4488ZM28.759 19.8019L29.7357 19.857L29.0623 20.2114C30.0493 20.4971 29.4602 20.2413 30.1316 20.7766C30.4785 21.0521 31.0947 20.9929 31.6055 21.0113L30.6397 21.435C31.5939 21.7595 34.0045 20.3631 33.276 19.1211C32.9624 19.3904 33.0774 19.9604 32.5217 19.8618C32.302 19.8224 30.1268 18.6525 28.759 19.8026H28.7583L28.759 19.8019Z" fill="#80BD00"/>
<path fill-rule="evenodd" clip-rule="evenodd" d="M35.8188 42.781L36.9989 42.8395L37.4975 37.8552L36.4698 37.8103L35.8188 42.781Z" fill="#FDFDFD"/>
<path fill-rule="evenodd" clip-rule="evenodd" d="M38.2104 37.2837L42.9601 36.9429C42.9186 36.7776 43.2172 35.8866 43.2798 35.6608C40.8611 36.0689 40.8515 35.9791 38.7219 36.1274C38.3424 36.1539 38.3138 36.3375 38.2104 37.2837Z" fill="#FDFDFD"/>
<path fill-rule="evenodd" clip-rule="evenodd" d="M30.1714 34.9672C29.9959 34.3135 29.8898 33.951 29.7837 33.1967C29.7286 32.8063 29.0647 32.3655 28.8165 31.9452C28.5396 31.4759 28.1825 31.0453 27.935 30.6154C27.703 30.2128 27.7438 30.3155 27.401 30.074C27.0854 29.8516 27.099 29.7115 26.8664 29.4646C26.4223 30.2053 26.7256 30.5318 27.0841 31.0922C27.4275 31.6296 27.6881 31.9962 28.0356 32.4716C28.4403 33.0246 29.7374 34.6917 30.1714 34.9679H30.1707L30.1714 34.9672Z" fill="#FBFBFB"/>
<path fill-rule="evenodd" clip-rule="evenodd" d="M37.498 44.5473L41.8416 44.6711L41.7328 43.5176L37.5416 43.387L37.498 44.5473Z" fill="#FCFCFC"/>
<path fill-rule="evenodd" clip-rule="evenodd" d="M23.4753 33.2011C23.527 33.4651 23.7202 33.8643 23.8276 34.167C24.1521 35.0777 23.6113 34.9111 26.0803 34.9186L26.7959 34.9179L26.4782 33.1182C25.9885 34.0235 25.4498 33.2957 23.4753 33.2011H23.4746H23.4753Z" fill="#FDFDFD"/>
<path fill-rule="evenodd" clip-rule="evenodd" d="M16.2768 38.2332L16.1108 38.5039C16.1857 38.5801 18.0269 39.4507 18.4214 39.6983C19.2444 40.2152 19.7293 40.6056 20.4388 41.1144C20.0184 40.1445 17.997 37.7115 17.3889 37.2891L17.0842 37.0381C17.074 36.862 17.0604 36.9919 17.1665 36.9422L17.0903 36.7321L16.7971 38.678L16.302 38.508L16.2788 38.2339L16.2782 38.2332H16.2768Z" fill="#FBFBFB"/>
<path fill-rule="evenodd" clip-rule="evenodd" d="M49.8677 36.9422C49.9684 37.0184 49.9609 36.8436 49.9412 37.03L49.6446 37.2905C49.0488 37.6932 47.0096 40.1567 46.5947 41.1144C47.3041 40.605 47.8524 40.1839 48.6121 39.6983C49.0202 39.4378 50.8376 38.5889 50.922 38.5026L50.756 38.2319L50.7444 38.5073L50.2302 38.6998L49.9446 36.7307L49.8677 36.9409V36.9416V36.9422Z" fill="#FBFBFB"/>
<path fill-rule="evenodd" clip-rule="evenodd" d="M15.3217 45.281L15.672 45.2218C15.6305 45.2742 15.6087 45.3299 15.5659 45.349C15.1129 45.5469 15.4584 45.4027 15.3217 45.281ZM16.5331 45.2449C16.4841 45.1742 16.5712 45.1545 16.2896 45.2129C16.1379 45.2449 16.1746 45.2987 16.027 45.2143C16.4644 44.8926 16.6882 45.049 17.0677 44.9184C17.1711 44.9225 19.1368 44.441 20.1196 44.7742L18.5328 44.8974C19.3463 45.0116 20.9964 45.1953 21.6582 44.8457C21.0732 44.5171 18.2009 44.3246 17.3615 44.4301C16.6644 44.5171 16.0577 44.6783 15.4992 44.9763C14.5375 45.4905 14.4613 45.8543 14.1641 46.0203C14.3117 46.1672 14.16 46.036 14.3457 46.1162C14.7776 46.3046 14.2124 45.987 14.4674 46.1604L14.4817 46.863C14.6694 46.7903 15.153 46.2108 15.4373 45.9788C15.7108 45.7557 16.1563 45.4279 16.5345 45.2442L16.5331 45.2449Z" fill="#F6F6F6"/>
<path fill-rule="evenodd" clip-rule="evenodd" d="M35.0043 25.5358C35.4294 25.5106 35.6396 25.7161 36.7721 25.5433C37.1564 25.4841 38.044 25.2046 38.3446 25.3304C37.857 25.4984 37.2856 25.6841 36.7347 25.763C35.8049 25.8963 35.5825 25.7303 35.0037 25.5351L35.0043 25.5358ZM36.7585 24.8339L37.1407 25.074C36.649 24.9992 36.5735 24.8176 35.8743 24.8176C35.3628 24.8176 34.7663 25.0454 34.5459 25.3916C34.8785 25.8507 35.9688 26.0058 36.7204 26.0058C37.9814 26.0058 39.6717 25.0515 39.8832 24.27C37.7284 25.3202 38.112 24.6693 36.7585 24.8339Z" fill="#F9F9F9"/>
<path fill-rule="evenodd" clip-rule="evenodd" d="M29.8209 25.3292C30.3256 25.3883 30.7677 25.5699 31.3479 25.6026C31.9818 25.6386 32.4443 25.5305 33.0259 25.5203C32.2444 25.9427 30.4303 25.925 29.8202 25.3292H29.8209ZM31.4145 25.0489C31.3458 25.1108 31.5689 25.0768 31.3186 25.1163C31.1296 25.1469 31.3071 25.1299 31.2221 25.0952C31.3479 24.8415 31.2166 25.0231 31.3867 24.9564L31.6601 24.8075C30.4562 24.8972 29.4074 24.9585 28.5932 24.3313C28.4783 24.3354 28.5095 24.3062 28.5034 24.4211C29.1251 25.0965 29.525 25.5727 30.7752 25.8855C31.5955 26.0909 33.5244 25.9957 33.821 25.3332C33.2034 24.6163 32.3423 24.7911 31.4139 25.0496V25.0489H31.4145Z" fill="#F9F9F9"/>
<path fill-rule="evenodd" clip-rule="evenodd" d="M24.0201 36.5743L27.1155 36.6015L26.923 35.5282L23.6997 35.4983L24.0201 36.5743Z" fill="#FDFDFD"/>
<path fill-rule="evenodd" clip-rule="evenodd" d="M51.1201 43.8235C51.6132 43.9113 52.3492 44.335 52.7348 44.6302C53.1123 44.9186 53.7524 45.7239 53.9619 45.8259L54.0612 44.1133C53.3674 43.7596 52.1349 43.1461 51.2895 43.1073L51.1201 43.8228V43.8235Z" fill="#FBFBFB"/>
<path fill-rule="evenodd" clip-rule="evenodd" d="M13.0723 45.8253C13.3532 45.6885 14.4421 44.0861 15.914 43.8228L15.7446 43.1073C14.9006 43.1461 13.6701 43.7582 12.9736 44.1133L13.0729 45.8253H13.0723Z" fill="#FBFBFB"/>
<path fill-rule="evenodd" clip-rule="evenodd" d="M13.8699 46.634C13.623 46.7816 12.9285 47.7584 12.8939 48.1216C12.8619 48.4528 13.4387 49.5656 13.5577 49.8975C13.7842 49.7825 13.9372 49.3996 14.078 49.2098C14.914 48.0801 14.6031 48.8759 14.1222 47.6876C13.9862 47.3523 13.9685 46.8809 13.8706 46.634V46.6347L13.8699 46.634Z" fill="#FBFBFB"/>
<path fill-rule="evenodd" clip-rule="evenodd" d="M29.6049 36.8407L32.063 37.0318L31.944 35.8708L29.4131 35.6742L29.6049 36.8407Z" fill="#FCFCFC"/>
<path fill-rule="evenodd" clip-rule="evenodd" d="M29.6934 44.3867L32.2059 44.3786L32.229 43.2413L29.8042 43.2175L29.6934 44.3867Z" fill="#FDFDFD"/>
<path fill-rule="evenodd" clip-rule="evenodd" d="M25.9022 43.5207L25.3125 43.5146L25.1445 44.6437C26.0464 44.6526 26.0825 44.7042 26.8892 44.5383C26.9007 44.5362 26.9171 44.5328 26.9286 44.5308L27.2571 44.5369L27.3959 43.3602L25.9016 43.5207H25.9009H25.9022Z" fill="#FCFCFC"/>
<path fill-rule="evenodd" clip-rule="evenodd" d="M30.4489 35.2083L31.863 35.3253C31.8439 35.0369 31.7514 34.101 31.6269 33.9194C31.5167 33.7575 30.789 33.3161 30.555 33.2848L30.4319 33.6915C30.3768 34.1806 30.3965 34.7227 30.4489 35.2083Z" fill="#FBFBFB"/>
<path fill-rule="evenodd" clip-rule="evenodd" d="M27.4197 35.0201L28.6637 35.0834C28.7161 34.3005 28.4488 34.0802 28.0774 33.6741C27.8679 33.4442 27.3455 32.6763 27.102 32.5382C27.0728 33.0647 27.27 34.5447 27.4197 35.0208V35.0201Z" fill="#FBFBFB"/>
<path fill-rule="evenodd" clip-rule="evenodd" d="M24.3401 43.9002C24.6333 43.2935 24.1041 38.7486 23.9184 37.9283C23.6817 36.8849 22.7043 33.8105 22.1479 33.1399C22.2139 33.4983 23.3199 36.098 23.7021 38.0677C24.0837 40.0348 24.2116 41.857 24.3408 43.9009L24.3401 43.9002Z" fill="#F3F3F3"/>
<path fill-rule="evenodd" clip-rule="evenodd" d="M42.6933 43.9006C42.9442 39.9175 43.1102 37.9729 44.4386 34.3714C44.5773 33.9946 44.8174 33.5157 44.8854 33.1389C44.6202 33.4593 44.0699 34.8713 43.8693 35.4107C43.5618 36.2371 43.319 37.024 43.115 37.9273C42.9306 38.7374 42.3994 43.2925 42.6933 43.8999V43.9006Z" fill="#F3F3F3"/>
<path fill-rule="evenodd" clip-rule="evenodd" d="M34.7623 34.6023L34.4106 35.5097L36.1226 35.5933L36.4396 34.1881C35.82 34.3384 35.4996 34.4717 34.7623 34.603V34.6023Z" fill="#FCFCFC"/>
<path fill-rule="evenodd" clip-rule="evenodd" d="M44.9071 43.9078C45.0329 43.55 45.069 41.8401 45.1234 41.2504C45.3023 39.3214 45.4546 38.1161 45.9457 36.2627C46.1103 35.6424 46.5334 34.5037 46.5864 33.9773C46.1845 34.4092 45.3703 37.606 45.2261 38.4481C44.9051 40.3192 44.9051 41.9741 44.9064 43.9085L44.9071 43.9078Z" fill="#F0F0F0"/>
<path fill-rule="evenodd" clip-rule="evenodd" d="M22.1263 43.908C22.1283 41.9742 22.1283 40.3187 21.8066 38.4476C21.6624 37.6055 20.8483 34.4094 20.4463 33.9768C20.5 34.5033 20.9231 35.6419 21.087 36.2622C21.5774 38.1163 21.7298 39.3216 21.9093 41.2499C21.9644 41.8396 21.9998 43.5495 22.1256 43.9073L22.1263 43.908Z" fill="#F0F0F0"/>
<path fill-rule="evenodd" clip-rule="evenodd" d="M29.6244 44.9438C29.5917 45.3233 29.4373 45.5151 29.7618 45.5743L32.1165 45.6416L32.1396 44.9207C31.4785 44.9023 30.2093 44.8166 29.6237 44.9431V44.9438H29.6244Z" fill="#FDFDFD"/>
<path fill-rule="evenodd" clip-rule="evenodd" d="M33.9239 43.4189C34.515 43.1258 34.8585 43.9705 34.368 44.2127C33.7851 44.5011 33.39 43.6849 33.9239 43.4189ZM32.9492 44.4099C33.3145 44.4195 33.6301 44.4405 33.9994 44.4433C34.3068 44.4453 34.8571 44.563 35.104 44.3875L35.1611 43.321L33.0594 43.255L32.9492 44.4093V44.4099Z" fill="#F9F9F9"/>
<path fill-rule="evenodd" clip-rule="evenodd" d="M53.4246 37.6963L52.5962 38.0412L52.6928 39.441L53.6232 39.4505L53.7661 37.9371L53.7831 37.6018L53.4246 37.6963Z" fill="#FCFCFC"/>
<path fill-rule="evenodd" clip-rule="evenodd" d="M13.4192 39.4486L14.3245 39.4384L14.453 38.057L13.2471 37.5686L13.4192 39.4486Z" fill="#FCFCFC"/>
<path fill-rule="evenodd" clip-rule="evenodd" d="M42.6159 53.4099C45.7549 54.1697 49.8305 54.2085 52.7743 52.9461C53.5082 52.6318 54.757 51.7571 54.8604 51.0157C54.6964 51.2144 54.6413 51.4089 54.4591 51.6272C53.4232 52.8679 51.0929 53.446 49.5061 53.648C47.5506 53.8976 45.8155 53.8221 43.9015 53.5643C43.339 53.4882 42.7186 53.312 42.1929 53.2671L42.6159 53.4093V53.4099Z" fill="#E2E2E2"/>
<path fill-rule="evenodd" clip-rule="evenodd" d="M30.3599 15.9182C31.41 16.6222 34.4939 16.646 36.0638 16.3555C36.7813 16.2229 37.6533 15.9093 37.7179 15.8978C37.4193 15.8787 36.4623 16.0984 36.0298 16.1494C34.6769 16.31 33.5369 16.3072 32.1834 16.1821C31.544 16.1229 30.9353 15.9631 30.3599 15.9175V15.9182Z" fill="#80BD00"/>
<path fill-rule="evenodd" clip-rule="evenodd" d="M34.9935 45.6029L35.0506 45.0363C34.9445 45.0315 34.816 45.037 34.7187 45.0309C34.6419 45.0261 34.633 45.0247 34.5609 45.0091L34.4841 44.9669L32.9006 44.9574L32.8496 45.6981L34.8459 45.7001C35.1554 45.6845 34.937 45.7131 34.9935 45.6029V45.6036V45.6029Z" fill="#FDFDFD"/>
<path fill-rule="evenodd" clip-rule="evenodd" d="M33.6735 36.0227C33.6796 35.8153 33.6959 35.9731 33.6163 35.9071C33.5129 36.3336 33.2885 36.8689 33.1565 37.3477C33.0688 37.6687 32.8593 38.6189 32.7518 38.823C32.7226 38.0694 32.6777 37.3545 32.5675 36.6186C32.5158 36.2764 32.2091 34.7549 32.2227 34.6549C32.1893 35.1501 32.307 35.733 32.3505 36.2349C32.3988 36.79 32.4566 37.328 32.4961 37.8796C32.575 38.9713 32.5648 40.2167 32.6859 41.2968C32.8947 40.6132 32.5695 40.0317 32.9919 38.4877C33.1055 38.07 33.6728 36.2928 33.6728 36.0227H33.6735Z" fill="#E5E5E5"/>
<path fill-rule="evenodd" clip-rule="evenodd" d="M12.842 52.3671C12.9386 52.159 12.9345 51.7135 12.9944 51.4612C13.057 51.1979 13.2066 50.8851 13.2454 50.6912C13.2828 50.5028 12.7931 49.4941 12.6604 49.2935C12.5121 49.5322 12.7019 49.8015 12.506 50.1512C12.3156 50.4899 12.3278 50.428 12.3945 50.915C12.4625 51.4115 12.5747 52.0264 12.842 52.3671Z" fill="#F9F9F9"/>
<path fill-rule="evenodd" clip-rule="evenodd" d="M27.7294 36.7129L29.0075 36.7952L28.8082 35.6321L27.522 35.5519L27.7294 36.7129Z" fill="#FCFCFC"/>
<path fill-rule="evenodd" clip-rule="evenodd" d="M27.9609 43.308L27.8521 44.4629L29.1349 44.3915L29.2369 43.2393L27.9609 43.308Z" fill="#FCFCFC"/>
<path fill-rule="evenodd" clip-rule="evenodd" d="M36.8379 34.914C37.2208 34.6759 39.111 32.4858 39.3947 31.9348C38.1227 32.4205 38.824 32.4524 37.8956 33.2271C37.1032 33.8876 37.0828 33.453 36.8379 34.914Z" fill="#F7F7F7"/>
<path fill-rule="evenodd" clip-rule="evenodd" d="M34.5434 36.7532C34.4638 36.0928 35.3555 36.0288 35.4419 36.5879C35.5378 37.2015 34.6087 37.3014 34.5434 36.7532ZM33.9551 37.1756L35.7745 37.2613L35.9908 36.1322L34.2605 36.0452L33.9551 37.1749H33.9558L33.9551 37.1756Z" fill="#F7F7F7"/>
<path fill-rule="evenodd" clip-rule="evenodd" d="M35.8126 43.3398L35.7119 44.4444L36.9165 44.5295L36.9934 43.363L35.8126 43.3398Z" fill="#FCFCFC"/>
<path fill-rule="evenodd" clip-rule="evenodd" d="M14.9077 39.5112L16.196 39.7812L16.1905 38.9426C15.9157 38.7168 15.3947 38.4175 15.0036 38.34L14.9077 39.5112Z" fill="#FCFCFC"/>
<path fill-rule="evenodd" clip-rule="evenodd" d="M50.8413 38.9426V39.788L52.0942 39.4956C52.1364 39.0916 52.0785 38.7073 52.0296 38.34C51.6344 38.4175 51.1215 38.7161 50.8413 38.9419V38.9426Z" fill="#FCFCFC"/>
<path fill-rule="evenodd" clip-rule="evenodd" d="M22.8564 45.0872C22.9095 45.1531 22.836 45.1218 22.9952 45.2796C23.0272 45.3109 23.0816 45.3497 23.1285 45.3817C23.8577 45.8816 24.5936 46.3577 25.5336 45.9795C25.552 45.9721 25.7132 45.8898 25.7322 45.8748C25.9077 45.7313 25.7682 45.8714 25.8308 45.7449L22.8564 45.0878V45.0872Z" fill="#F9F9F9"/>
<path fill-rule="evenodd" clip-rule="evenodd" d="M31.6374 32.1322C31.6973 32.1669 31.7238 32.1655 31.7877 32.1961C31.7285 31.1813 31.6809 30.965 31.266 30.1481C30.9035 29.4346 30.6267 28.9959 30.6131 28.0403C29.7703 29.1292 31.619 31.0562 31.6374 32.1322Z" fill="#80BD00"/>
<path fill-rule="evenodd" clip-rule="evenodd" d="M34.9802 31.8464C35.0673 31.6743 35.168 31.0036 35.2482 30.7594C35.4761 30.0623 36.3079 28.1809 35.4523 27.4756C35.4652 27.9136 35.589 28.0891 35.4951 28.6339C35.2999 29.7705 34.7061 30.6207 34.9802 31.8464Z" fill="#80BD00"/>
<path fill-rule="evenodd" clip-rule="evenodd" d="M26.0454 19.1789C26.0454 19.6469 26.2291 20.0128 26.3161 20.4345C26.4018 20.848 26.3365 21.4459 26.5052 21.786C26.6691 21.4786 26.9548 19.6027 26.882 19.2966C26.882 19.2966 26.9942 19.3408 26.7922 19.098C26.5637 19.6584 26.6943 19.9067 26.6766 20.5658C26.614 20.4263 26.3937 19.5523 26.3447 19.3394C26.1454 18.479 26.5433 18.4634 26.6508 18.0294C26.2087 18.1355 26.0461 18.6593 26.0461 19.1782L26.0454 19.1789Z" fill="#F5F5F5"/>
<path fill-rule="evenodd" clip-rule="evenodd" d="M36.5811 37.2727L37.6265 37.2993L37.8407 36.1545L36.8368 36.1552L36.5811 37.2727Z" fill="#FBFBFB"/>
<path fill-rule="evenodd" clip-rule="evenodd" d="M34.3026 11.3527C34.5216 10.9371 33.7782 9.83186 33.5422 9.57136C33.2416 9.24012 32.4675 8.67353 31.7588 8.64429C31.9329 8.85242 32.5614 9.14829 33.2164 9.8271C33.6191 10.2447 33.9619 10.7814 34.3033 11.3527H34.3026Z" fill="#80BD00"/>
<path fill-rule="evenodd" clip-rule="evenodd" d="M37.0151 35.6315L37.9687 35.6253L38.3013 34.2854C38.0939 34.4201 37.8402 34.6731 37.5933 34.8887C37.309 35.137 37.0328 35.2281 37.0151 35.6315Z" fill="#F9F9F9"/>
<path fill-rule="evenodd" clip-rule="evenodd" d="M51.5653 42.2156C51.6102 42.051 51.5952 42.0952 51.734 41.9258C51.8231 41.8177 51.8748 41.7612 51.9537 41.6633C52.0829 41.5041 52.1727 41.3524 52.3454 41.1443C51.7006 41.0899 51.7054 41.0838 51.3905 41.4674C51.2388 41.6524 50.9286 41.9782 50.8579 42.2033C51.1776 42.2557 51.3034 42.321 51.5653 42.2156V42.2149V42.2156Z" fill="#80BD00"/>
<path fill-rule="evenodd" clip-rule="evenodd" d="M15.502 42.2551C15.7966 42.2817 15.8972 42.2483 16.1727 42.2041C16.0992 41.9729 15.7972 41.6573 15.6415 41.4682C15.3286 41.0852 15.3279 41.0927 14.6865 41.1465C14.8069 41.29 15.4898 42.1579 15.502 42.2558H15.5014L15.502 42.2551Z" fill="#80BD00"/>
<path fill-rule="evenodd" clip-rule="evenodd" d="M36.8938 45.5695L36.8951 45.0451C36.553 45.043 35.9402 44.9798 35.6416 45.0532L35.6572 45.6797L36.8938 45.5695Z" fill="#FBFBFB"/>
<path fill-rule="evenodd" clip-rule="evenodd" d="M39.8748 9.67163L39.8218 9.71108C39.8633 9.8852 40.0585 10.2423 40.2006 10.8531C40.4346 11.8604 40.6577 14.0921 40.6577 15.0647H40.7414C40.7414 13.6064 40.6012 10.6259 39.8755 9.67163H39.8748Z" fill="#EBEBEB"/>
<path fill-rule="evenodd" clip-rule="evenodd" d="M27.7378 45.5354L29.0036 45.5115L29.0247 44.9293L27.7956 45.0055L27.7378 45.5354Z" fill="#FBFBFB"/>
<path fill-rule="evenodd" clip-rule="evenodd" d="M33.6152 17.1518C33.7166 17.2409 33.7193 17.2559 33.9744 17.3083C34.8069 17.4783 36.2046 17.3892 36.7835 16.9376C36.3815 16.9314 35.7428 17.0729 35.2708 17.109C34.7219 17.1511 34.1716 17.1171 33.6152 17.1518Z" fill="#80BD00"/>
<path fill-rule="evenodd" clip-rule="evenodd" d="M33.9245 43.419C33.3906 43.6849 33.7858 44.5004 34.3687 44.2127C34.8591 43.9706 34.5156 43.1258 33.9245 43.419Z" fill="#80BD00"/>
<path fill-rule="evenodd" clip-rule="evenodd" d="M34.5416 36.7531C34.6076 37.3013 35.5367 37.202 35.4401 36.5878C35.3531 36.0287 34.4621 36.0934 34.5416 36.7531Z" fill="#80BD00"/>
<path fill-rule="evenodd" clip-rule="evenodd" d="M16.9836 35.5187L17.0237 35.4691C16.8761 35.3222 16.8564 35.3521 16.6802 35.2541L16.736 34.5502C16.4755 34.5753 16.23 34.6468 15.998 34.7012C15.6892 34.7746 15.5178 34.7243 15.5205 35.0365C15.7457 35.1127 16.0402 35.1399 16.283 35.2283C16.5347 35.3188 16.7455 35.4575 16.9829 35.5187H16.9822H16.9836Z" fill="#F7F7F7"/>
<path fill-rule="evenodd" clip-rule="evenodd" d="M50.008 35.4698L50.0481 35.5194C50.2862 35.4589 50.497 35.3188 50.748 35.229C50.9915 35.1412 51.286 35.114 51.5105 35.0379C51.5132 34.7257 51.3418 34.7753 51.033 34.7018C50.8018 34.6468 50.5562 34.576 50.2991 34.5502L50.3597 35.2535C50.3379 35.2616 50.2134 35.3201 50.2012 35.3269C50.0461 35.4181 50.1168 35.3603 50.008 35.4691L50.0073 35.4698H50.008Z" fill="#F7F7F7"/>
<path fill-rule="evenodd" clip-rule="evenodd" d="M39.3774 31.096L39.4489 31.1198C39.9644 30.5478 40.1134 29.6595 40.2746 28.7528C40.4201 27.9339 40.7269 26.8001 40.7677 26.0043L40.1352 28.6052C39.9801 29.4677 39.8434 30.5281 39.3774 31.0953V31.096Z" fill="#E5E5E5"/>
<path fill-rule="evenodd" clip-rule="evenodd" d="M35.3337 8.84307C35.248 8.84579 35.2698 8.82471 35.2766 8.91177C35.9295 9.57358 36.4757 10.4238 36.7825 11.359C36.8063 11.4311 36.8294 11.5284 36.8552 11.5916L36.8947 11.6828C36.9348 11.7583 36.9518 11.7671 36.9831 11.8073C36.8695 10.434 36.2111 9.46135 35.3337 8.84307V8.84375V8.84307Z" fill="#F5F5F5"/>
<path fill-rule="evenodd" clip-rule="evenodd" d="M45.6456 40.4613C45.9292 40.0117 46.3774 38.3168 46.0013 37.7937C45.919 38.4215 45.5714 39.8757 45.6456 40.4613Z" fill="#F4F4F4"/>
<path fill-rule="evenodd" clip-rule="evenodd" d="M21.3866 40.4613C21.4614 39.8757 21.1132 38.4222 21.0309 37.7937C20.6554 38.3181 21.1023 40.0111 21.3866 40.4613Z" fill="#F4F4F4"/>
<path fill-rule="evenodd" clip-rule="evenodd" d="M35.0049 25.5356C35.5837 25.7308 35.8061 25.8961 36.7359 25.7635C37.2862 25.6846 37.8575 25.4982 38.3459 25.3309C38.0452 25.2044 37.1569 25.4846 36.7733 25.5431C35.6402 25.7166 35.4307 25.5112 35.0056 25.5356H35.0049Z" fill="#80BD00"/>
<path fill-rule="evenodd" clip-rule="evenodd" d="M29.8213 25.3297C30.4307 25.9249 32.2454 25.9425 33.0269 25.5208C32.4454 25.5304 31.9835 25.6385 31.349 25.6031C30.7681 25.5705 30.326 25.3889 29.822 25.3297H29.8213Z" fill="#80BD00"/>
<path fill-rule="evenodd" clip-rule="evenodd" d="M41.417 21.8631C41.3884 21.6549 41.6292 20.3511 41.7251 20.0463C41.8639 19.6022 41.9768 18.8676 41.704 18.4411C41.6088 18.2929 41.6523 18.3554 41.5408 18.2772C42.019 19.9185 41.1497 20.1388 41.417 21.8631Z" fill="#DADADA"/>
<path fill-rule="evenodd" clip-rule="evenodd" d="M37.4706 45.4872C38.1501 45.4498 38.8391 45.2927 39.4438 45.1335L37.9896 45.0777C37.6386 45.0546 37.6277 45.0492 37.4692 45.1553L37.4706 45.4865H37.4699L37.4706 45.4872Z" fill="#F5F5F5"/>
<path fill-rule="evenodd" clip-rule="evenodd" d="M30.5527 10.2367C30.6003 10.3741 31.1431 10.8455 31.5416 11.7004C31.6328 11.897 31.7056 12.15 31.811 12.3038C31.8321 11.8181 31.6069 11.3291 31.4185 10.9999C31.2512 10.7101 30.8098 10.2333 30.5676 10.1354C30.4663 10.1782 30.4017 10.0742 30.5533 10.2367H30.5527Z" fill="#80BD00"/>
<path fill-rule="evenodd" clip-rule="evenodd" d="M43.0796 35.1372L43.4727 35.0753L43.9597 33.7673C43.804 33.8415 43.8659 33.7258 43.655 34.0748C43.4897 34.3482 43.1184 34.8774 43.0803 35.1372H43.0796Z" fill="#F5F5F5"/>
<path fill-rule="evenodd" clip-rule="evenodd" d="M37.5165 11.5623C37.5736 10.6754 37.0261 9.53948 36.5166 9.39392C36.8812 9.72108 37.2342 10.7026 37.3859 11.244L37.5165 11.5623H37.5171H37.5165Z" fill="#EBEBEB"/>
<path fill-rule="evenodd" clip-rule="evenodd" d="M30.0379 35.176C29.908 34.9168 29.3985 34.6087 29.1802 34.3999C29.1265 35.2528 29.3856 35.1903 30.0379 35.176Z" fill="#F6F6F6"/>
<path fill-rule="evenodd" clip-rule="evenodd" d="M33.6168 11.6011C33.7202 11.5562 33.6936 11.6943 33.697 11.465C33.529 10.927 32.9985 10.2033 32.5469 10.0551C32.6958 10.3156 32.9189 10.5373 33.1162 10.8168C33.2753 11.042 33.5447 11.4276 33.6168 11.6011Z" fill="#80BD00"/>
<path fill-rule="evenodd" clip-rule="evenodd" d="M18.3126 42.2061L19.3424 42.2748C19.2043 42.1041 18.9445 42.0204 18.7303 41.9306C18.501 41.8347 18.2732 41.7416 18.0283 41.7048C18.1385 41.8939 18.2813 41.9919 18.3126 42.2061Z" fill="#F6F6F6"/>
<path fill-rule="evenodd" clip-rule="evenodd" d="M47.6909 42.2755L48.72 42.1898C48.7527 41.9919 48.8955 41.8932 49.0057 41.7048C48.65 41.7579 48.3276 41.9232 48.0086 42.066C47.948 42.0932 47.8929 42.1061 47.8406 42.1388C47.661 42.2497 47.7875 42.1551 47.6916 42.2755H47.6909Z" fill="#F6F6F6"/>
<path fill-rule="evenodd" clip-rule="evenodd" d="M37.9211 10.17C37.7742 9.58433 37.0069 8.84158 36.3506 8.69739C37.1185 9.41565 36.9879 9.0538 37.9211 10.17Z" fill="#DADADA"/>
<path fill-rule="evenodd" clip-rule="evenodd" d="M23.4969 34.9031L23.8717 34.9248L23.3554 34.0379C23.1833 33.7549 23.2269 33.8379 23.0942 33.7604L23.4969 34.9031V34.9037V34.9031Z" fill="#F5F5F5"/>
<path fill-rule="evenodd" clip-rule="evenodd" d="M51.3677 42.6626L51.3786 42.3708C50.4923 42.3096 50.9004 42.328 50.7644 42.4341C50.7868 42.5558 50.6127 42.751 51.3677 42.6626Z" fill="#80BD00"/>
<path fill-rule="evenodd" clip-rule="evenodd" d="M15.6655 42.6623C16.3878 42.7467 16.2491 42.5406 16.2688 42.4338C16.1436 42.3352 16.4361 42.3433 15.9913 42.3379C15.96 42.3372 15.707 42.3671 15.6553 42.3705L15.6662 42.6623H15.6655Z" fill="#80BD00"/>
<path fill-rule="evenodd" clip-rule="evenodd" d="M49.8301 41.3204C50.0763 41.2932 50.0124 41.2857 50.0913 41.398C50.3375 41.3769 50.6517 41.3218 50.7993 41.2028L50.0198 41.2354C49.9158 41.2599 49.9988 41.2415 49.9137 41.2708C49.9015 41.2749 49.8784 41.3075 49.8702 41.2946C49.862 41.2823 49.8437 41.3123 49.8301 41.3204H49.8308H49.8301Z" fill="#A0A0A0"/>
<path fill-rule="evenodd" clip-rule="evenodd" d="M49.9436 42.916L49.7981 42.8201L50.2477 42.7303C49.8416 42.7255 49.3804 42.7745 49.0825 42.8935L49.9436 42.916H49.9443H49.9436Z" fill="#949494"/>
<path fill-rule="evenodd" clip-rule="evenodd" d="M33.6164 35.9078C33.6967 35.9738 33.6797 35.8167 33.6735 36.0235C33.8436 35.85 33.896 35.4582 33.949 35.1943L33.8871 35.2705C33.7497 35.4868 33.9728 35.1086 33.8402 35.3481L33.6157 35.9085L33.6164 35.9078Z" fill="#A2A2A2"/>
<path fill-rule="evenodd" clip-rule="evenodd" d="M34.9945 45.6029C35.121 45.4853 35.1142 45.1574 35.0829 44.9629L34.4844 44.967L34.5612 45.0085C34.6333 45.0248 34.6422 45.0261 34.719 45.0309C34.8163 45.037 34.9455 45.0316 35.051 45.0364L34.9938 45.6029H34.9945Z" fill="#A9A9A9"/>
<path fill-rule="evenodd" clip-rule="evenodd" d="M39.8214 9.71011L39.8744 9.67066C39.7955 9.42852 39.5432 9.25916 39.3105 9.18774L39.8207 9.71079H39.8214V9.71011Z" fill="#9E9E9E"/>
<path fill-rule="evenodd" clip-rule="evenodd" d="M39.4504 31.1199L39.379 31.0961L38.8716 31.5552C39.1355 31.4634 39.3504 31.3899 39.4504 31.1199Z" fill="#989898"/>
<path fill-rule="evenodd" clip-rule="evenodd" d="M36.7378 21.3758C36.7657 21.388 36.7392 21.3982 36.8874 21.435C37.0894 21.4853 37.2404 21.4996 37.3683 21.4268L36.916 21.2527C36.8704 21.4071 37.0922 21.3622 36.7378 21.3758Z" fill="#969696"/>
<path fill-rule="evenodd" clip-rule="evenodd" d="M35.5992 38.2243C35.6937 38.1141 35.6155 38.3596 35.6951 38.0569C35.7264 37.9365 35.7135 37.9161 35.7169 37.8182C35.5291 37.7311 35.4536 37.759 35.2251 37.7509C35.3788 37.8583 35.4291 37.8216 35.6482 37.8209L35.5992 38.2243Z" fill="#A6A6A6"/>
<path fill-rule="evenodd" clip-rule="evenodd" d="M18.7912 36.866C18.9334 37.0408 18.9885 37.0633 19.2116 37.1218C19.1054 36.9347 19.0327 36.8966 18.8511 36.8157L18.7905 36.866H18.7912Z" fill="#959595"/>
<path fill-rule="evenodd" clip-rule="evenodd" d="M52.9448 46.3402C53.0482 46.5048 53.1366 46.5368 53.3461 46.6449C53.24 46.4606 53.1815 46.3742 53.0183 46.2858L52.9448 46.3395V46.3402Z" fill="#A9A9A9"/>
<path fill-rule="evenodd" clip-rule="evenodd" d="M26.289 45.3649C26.1278 45.4281 26.1176 45.4853 26.0693 45.639C26.3264 45.6471 26.3339 45.6737 26.289 45.3649Z" fill="#A2A2A2"/>
<path fill-rule="evenodd" clip-rule="evenodd" d="M17.3876 37.289L17.4481 37.2394C17.3026 37.0367 17.2631 37.0938 17.1638 36.9421C17.0577 36.9918 17.0713 36.8626 17.0815 37.038L17.3862 37.289H17.3869H17.3876Z" fill="#999999"/>
<path fill-rule="evenodd" clip-rule="evenodd" d="M33.084 21.435L33.1493 21.5125C33.1887 21.4635 33.1915 21.4962 33.2357 21.3955C33.2758 21.3044 33.271 21.2785 33.2901 21.1908C33.0908 21.2908 33.154 21.2058 33.0847 21.4343L33.084 21.435Z" fill="#9C9C9C"/>
<path fill-rule="evenodd" clip-rule="evenodd" d="M37.3773 30.3344L37.3487 30.2562C37.2657 30.3222 37.1127 30.4623 37.2038 30.6609L37.3773 30.3344L37.378 30.3351L37.3773 30.3344Z" fill="#9B9B9B"/>
<path fill-rule="evenodd" clip-rule="evenodd" d="M41.6018 39.0522L41.7425 39.0678C41.7425 39.0128 41.7507 38.8706 41.7432 38.8209C41.7051 38.5604 41.7942 38.9549 41.7208 38.7244L41.6011 39.0522H41.6018Z" fill="#9F9F9F"/>
<path fill-rule="evenodd" clip-rule="evenodd" d="M25.2909 39.0678L25.4317 39.0528L25.3127 38.725C25.2358 39.0277 25.329 38.5006 25.2903 38.8216C25.2835 38.8787 25.2909 39.0086 25.2916 39.0685L25.2909 39.0678Z" fill="#9F9F9F"/>
<path fill-rule="evenodd" clip-rule="evenodd" d="M46.7568 42.1788L46.6868 42.0979L46.48 42.3196C46.7167 42.2727 46.6351 42.323 46.7568 42.1788V42.1782V42.1788Z" fill="#B5B5B5"/>
<path fill-rule="evenodd" clip-rule="evenodd" d="M28.5033 24.4217C28.5088 24.3074 28.4782 24.336 28.5924 24.3319C28.5258 24.2571 28.6815 24.2516 28.3911 24.2156C28.4217 24.506 28.4333 24.3543 28.5027 24.421L28.5033 24.4217Z" fill="#979797"/>
<path fill-rule="evenodd" clip-rule="evenodd" d="M20.277 42.1788C20.3981 42.323 20.3165 42.2727 20.5396 42.3305L20.3457 42.0979L20.2764 42.1782V42.1788H20.277Z" fill="#B5B5B5"/>
<path fill-rule="evenodd" clip-rule="evenodd" d="M52.1348 49.8089C52.2531 49.9286 52.0103 49.8252 52.2436 49.9048C52.4864 49.9871 52.3341 49.9123 52.3925 49.8899C52.2409 49.6538 52.5844 49.9531 52.3266 49.8137L52.2157 49.7701L52.1348 49.8096V49.8089Z" fill="#A1A1A1"/>
<path fill-rule="evenodd" clip-rule="evenodd" d="M31.4141 25.0503L31.3876 24.9578C31.2182 25.0251 31.3488 24.8428 31.2236 25.0965C31.3073 25.1312 31.1305 25.1482 31.3195 25.1176C31.5685 25.0775 31.3461 25.1122 31.4148 25.0503H31.4141Z" fill="#9D9D9D"/>
<path fill-rule="evenodd" clip-rule="evenodd" d="M31.786 32.1961C31.7227 32.1662 31.6962 32.1662 31.637 32.1322C31.6452 32.3451 31.5989 32.2281 31.7261 32.3784L31.7867 32.1961H31.786Z" fill="#949494"/>
<path fill-rule="evenodd" clip-rule="evenodd" d="M30.38 32.0505L30.2515 32.0737C30.4004 32.2396 30.2331 32.1131 30.4317 32.2287C30.4528 32.1934 30.5195 32.3165 30.4542 32.1464C30.4249 32.0689 30.4317 32.1022 30.38 32.0505Z" fill="#717171"/>
<path fill-rule="evenodd" clip-rule="evenodd" d="M28.7246 19.1699C28.8151 19.3277 28.7042 19.2767 28.9055 19.3005C28.8586 19.0625 28.9436 19.3101 28.8831 19.2121C28.8375 19.1366 28.8321 19.1393 28.7913 19.0972L28.7246 19.1699Z" fill="#9C9C9C"/>
<path fill-rule="evenodd" clip-rule="evenodd" d="M31.7715 13.4151C31.5491 13.4497 31.6913 13.4613 31.5688 13.4042L31.6185 13.5606C31.8409 13.4742 31.6926 13.5388 31.7715 13.4151L31.7709 13.4157L31.7715 13.4151Z" fill="#9F9F9F"/>
<path fill-rule="evenodd" clip-rule="evenodd" d="M33.0236 27.0187C33.2991 26.9732 33.0903 27.0221 33.1699 26.931L33.0434 26.8684L33.0236 27.0194H33.0229L33.0236 27.0187Z" fill="#A9A9A9"/>
<path fill-rule="evenodd" clip-rule="evenodd" d="M27.6567 29.542L27.8241 29.6515C27.8485 29.5202 27.8873 29.646 27.7887 29.4161C27.7778 29.5882 27.8261 29.5501 27.6567 29.542Z" fill="#9F9F9F"/>
<path fill-rule="evenodd" clip-rule="evenodd" d="M27.042 23.3367L27.1617 23.3523L27.1216 23.1973C27.0971 23.2095 27.0733 23.202 27.0719 23.2218C27.0699 23.2496 27.0474 23.3183 27.042 23.3367Z" fill="#858585"/>
<path fill-rule="evenodd" clip-rule="evenodd" d="M29.5824 23.7205L29.4946 23.7327L29.632 23.8871C29.647 23.5382 29.6545 23.8382 29.5824 23.7212V23.7205Z" fill="#BCBCBC"/>
<path fill-rule="evenodd" clip-rule="evenodd" d="M35.276 8.91177C35.2699 8.82471 35.2482 8.84579 35.3339 8.84307L35.276 8.91177Z" fill="#989898"/>
<path d="M5 1.0008H5.5V1.00012H63.0001C65.2087 1.00012 67.0001 2.79161 67.0001 5.00013V63.0003C67.0001 65.2081 65.2087 66.9996 63.0001 66.9996L5.00014 67.0003C5.00009 67.0003 5.00005 67.0003 5 67.0003C2.79204 66.9996 1.00068 65.2087 1.00068 63.0003L1 5.00094C1 5.0009 1 5.00085 1 5.0008C1.00068 2.79212 2.79166 1.0008 5 1.0008Z" stroke="#80BD00" stroke-miterlimit="22.9256"/>
</svg>
