<svg width="68" height="68" viewBox="0 0 68 68" fill="none" xmlns="http://www.w3.org/2000/svg">
<path fill-rule="evenodd" clip-rule="evenodd" d="M67.9318 39.2164V61.1457C67.9318 64.8929 64.8926 67.9321 61.1454 67.9321H43.5336L28.8169 53.1697C28.4248 52.7764 28.1538 52.1269 28.1326 50.826L28.1338 50.2358L28.6976 50.235L25.4908 47.0184C25.4807 47.0083 25.4705 46.9973 25.4607 46.9871C25.4418 46.9679 25.4233 46.9486 25.4048 46.929C25.355 46.8765 25.3052 46.8237 25.2569 46.7701C25.2433 46.755 25.2297 46.7399 25.2161 46.7245C23.605 44.9058 22.8502 42.1481 23.2997 39.8584C23.4861 39.7335 23.7076 39.5625 23.8703 39.4067C24.0054 39.4452 24.5715 39.4636 25.4282 39.4693L21.7972 35.827C21.7833 35.813 21.7701 35.7987 21.7568 35.7844C21.7504 35.7776 21.744 35.7708 21.7376 35.764C20.8847 34.8314 21.0115 33.2067 22.6105 32.6467C22.8151 32.575 23.3291 32.4617 24.0484 32.321L21.6538 29.9188C20.9028 29.1655 21.4542 28.0926 21.5357 27.4661C21.9508 27.2378 21.8886 26.8875 22.8823 26.7018C23.0362 26.6732 23.5076 26.5898 24.1956 26.4682L21.8006 24.0661C21.7946 24.06 21.7893 24.054 21.7836 24.048C21.7742 24.0382 21.7651 24.0283 21.7561 24.0185C21.7267 23.9865 21.6983 23.9544 21.6712 23.9212C21.6674 23.9166 21.6636 23.9121 21.6602 23.9076C20.8428 22.8841 21.1436 21.136 22.8687 20.8053C23.0502 20.7714 23.5518 20.6876 24.2518 20.571L21.8844 18.196C21.8761 18.1877 21.8682 18.1786 21.8599 18.17C21.8516 18.1613 21.8433 18.1522 21.8353 18.1435C20.9466 17.1819 21.0983 15.373 22.6581 14.9383C25.1584 14.242 30.6299 13.997 32.5879 13.0705C33.1268 12.8845 33.8348 12.3131 33.9993 11.8817C34.2333 11.8938 34.4998 11.9798 34.699 11.9379C34.9696 12.1165 39.3233 13.1879 40.8095 14.679L43.2309 17.108C43.748 17.0113 44.1371 16.9381 44.3129 16.906C45.0587 16.7687 45.7429 16.9804 46.1973 17.4155C46.1984 17.4167 46.1996 17.4178 46.2007 17.4189C46.2101 17.428 46.2196 17.437 46.229 17.4461L67.9325 39.2172L67.9318 39.2164Z" fill="#E1DBDB"/>
<path fill-rule="evenodd" clip-rule="evenodd" d="M28.1329 50.8257C28.179 53.663 29.4138 53.4014 30.5008 54.143C31.5088 53.9521 31.9122 55.1933 32.5485 55.6764C33.3377 56.0953 32.2111 56.1089 34.3951 56.1187C35.3602 56.1232 35.1786 55.6474 35.9085 55.2832C35.9236 55.1907 35.8961 55.2186 35.9885 55.2031C37.0068 53.1414 40.2981 54.8571 39.9158 50.2207L28.1341 50.2358L28.1329 50.8261V50.8257ZM23.2996 39.8577C22.6988 42.9188 24.2495 46.8169 27.1215 48.188C27.6782 48.4537 39.3995 48.3077 40.6758 48.2552C41.4971 48.2216 42.6115 46.506 43.0406 46.4199C44.331 44.1619 45.2816 42.7818 44.7703 39.8667C44.6103 39.7652 44.6861 39.8403 44.6265 39.6773C44.468 39.6248 44.2736 39.4482 44.0868 39.4169C42.3028 39.1168 24.716 39.6463 23.8702 39.4059C23.7075 39.5618 23.486 39.7324 23.2996 39.8577ZM36.9928 35.9591L36.986 37.4283L41.8835 37.4374L41.9016 35.0903L36.9928 35.9587V35.9591ZM40.3754 29.3803C39.9588 29.7026 24.0264 32.1493 22.6104 32.6455C20.1713 33.5 21.1563 36.8321 23.8215 36.4052L26.155 35.9625L26.1723 37.4348L31.0695 37.4363L31.0853 35.0651C32.892 34.7609 45.322 32.8792 46.2085 31.9651C47.3034 30.8359 47.0569 28.1779 43.5282 28.8466C42.9263 28.9606 40.8291 29.4116 40.3758 29.3803H40.3754ZM42.7451 23.049C42.4277 23.3007 24.0325 26.4856 22.8822 26.7007C21.8885 26.8864 21.9507 27.2366 21.5356 27.465C21.4303 28.2734 20.543 29.8245 22.6799 30.4744C23.6404 30.7665 39.935 27.5718 41.8941 27.214C42.7172 27.0638 45.0639 26.7343 45.6568 26.4562C47.4974 25.5923 46.912 22.7127 44.748 22.7497C44.1091 22.7607 43.358 23.0905 42.7455 23.049H42.7451ZM35.9961 18.3749C35.3771 18.784 23.9125 20.6095 22.8686 20.8042C20.5687 21.2447 20.7989 24.2073 22.8391 24.6096C23.8642 24.8119 39.4391 21.8164 43.5777 21.005C45.0812 20.742 46.3833 20.7001 46.7067 19.2512C47.043 17.745 45.7994 16.6313 44.3125 16.9049C43.3709 17.0782 36.3165 18.4145 35.9961 18.3749ZM32.5878 13.0694C30.6302 13.9959 25.1587 14.2409 22.658 14.9372C20.5717 15.5184 21.0027 18.5595 23.0758 18.7414C23.0758 18.7414 40.8498 15.8218 41.2993 15.5818C41.1487 13.6325 35.0213 12.1497 34.6986 11.9372C34.4989 11.9791 34.2325 11.8931 33.9989 11.881C33.8343 12.3124 33.1267 12.8834 32.5874 13.0698L32.5878 13.0694Z" fill="#80BD00"/>
<rect x="0.5" y="0.5" width="67" height="67" rx="4.5" stroke="#80BD00"/>
</svg>
