<svg width="68" height="68" viewBox="0 0 68 68" fill="none" xmlns="http://www.w3.org/2000/svg">
<path fill-rule="evenodd" clip-rule="evenodd" d="M19.562 27.9857C19.8939 29.5358 20.7931 31.3869 21.7242 32.3628C21.7269 32.3656 21.7294 32.3683 21.7321 32.371C21.7609 32.4012 21.7898 32.4302 21.8188 32.4588C21.8291 32.4689 21.8394 32.4788 21.8499 32.489C21.8599 32.4988 21.8698 32.5087 21.8798 32.5179L22.6782 33.2664C22.7499 33.3379 22.8253 33.4117 22.9075 33.4888L31.8776 41.8977C31.8769 44.4736 31.8369 47.0685 31.8356 49.6103C31.8345 51.9451 32.7837 53.8493 34.1422 55.1598C34.155 55.1721 34.1677 55.1844 34.1807 55.1967C34.1938 55.2094 34.2068 55.2221 34.2202 55.2345L47.7653 67.9324H61.1462C64.8937 67.9324 67.9326 64.8934 67.9328 61.146V40.606L50.0315 23.8245C50.023 23.8166 50.0141 23.8095 50.0055 23.8017C49.9986 23.7958 49.9919 23.7898 49.985 23.7838C49.2431 23.149 47.7868 23.2686 46.5496 23.2986L34.1265 11.6526C34.1236 11.6499 34.1207 11.6474 34.1178 11.6446L34.1158 11.6428C33.4705 11.0411 32.6829 10.6037 31.834 10.3766C29.6181 9.78304 27.3364 10.709 26.1213 12.5004C25.4824 13.4413 25.1891 14.2952 25.1857 15.625C25.182 16.9902 25.1562 18.3997 25.1944 19.7606L28.9317 23.2641C23.6194 23.2708 19.0719 23.3104 18.737 23.4284C17.3596 23.9136 17.046 25.4444 17.8365 26.3539C17.8392 26.3571 17.8421 26.3604 17.845 26.3637C17.8776 26.4009 17.9121 26.4369 17.9485 26.4719C17.9516 26.4748 17.9543 26.4778 17.9574 26.4807C17.9588 26.4822 17.9601 26.4835 17.9615 26.4849L19.5622 27.9855L19.562 27.9857Z" fill="#E1DBDB"/>
<path fill-rule="evenodd" clip-rule="evenodd" d="M19.4787 27.526C19.7355 29.3192 20.9091 31.7327 22.0399 32.6589C22.6597 33.1667 22.9504 33.7335 24.5239 34.6785C30.6765 38.3742 39.63 38.0895 44.9131 33.677L46.0892 32.5583C47.2106 31.1748 48.3163 29.7783 48.5271 27.5303L19.4787 27.526ZM31.8284 37.6313C31.9333 41.5717 31.837 45.6551 31.8352 49.6103C31.8336 53.181 34.0537 55.7449 36.5619 56.7178C38.2074 57.3566 39.9503 57.4451 41.6843 56.9052C43.2258 56.4253 44.2828 55.6034 45.2298 54.4769C47.5184 51.7559 46.9994 48.2174 46.9413 44.3777L42.5835 44.3907C42.5661 46.2013 42.9393 50.2135 42.0446 51.4781C40.6993 53.3788 38.1198 53.1983 37.0166 51.8539C36.3492 51.0416 36.1808 50.224 36.1826 48.876C36.1844 47.088 36.2589 38.7048 36.1679 37.6382C35.6055 37.5957 34.6777 37.726 34.0233 37.726C33.3021 37.7269 32.5001 37.6105 31.8284 37.6313ZM18.7366 23.4286C16.7335 24.1342 16.9781 27.053 19.602 27.053L40.2697 27.0504C41.6818 27.0504 48.593 27.2032 49.3786 26.9375C50.4921 26.5609 51.0399 25.0204 50.1406 23.9405C49.3951 23.0466 47.5447 23.3044 46.1482 23.3044C43.1859 23.3044 19.5178 23.1535 18.7366 23.4286ZM25.194 19.7608L28.7404 19.7521C28.7543 18.5709 28.6014 16.138 28.7724 15.1651C29.0822 13.4058 32.2379 12.9215 32.2335 15.9002L32.2301 22.7577C32.7587 22.9331 35.0604 22.822 35.793 22.8281C35.7617 21.2103 35.8867 15.712 35.7253 14.6706C35.3876 12.5068 33.7698 10.8951 31.8336 10.377C29.6177 9.78341 27.3361 10.7094 26.1209 12.5008C25.4821 13.4416 25.1887 14.2956 25.1853 15.6253C25.1817 16.9905 25.1558 18.4001 25.194 19.761V19.7608ZM36.2886 19.0968L36.2651 22.8348C38.92 22.7489 39.3862 23.3131 39.9052 21.9591C40.0536 21.5721 40.1039 21.086 40.0207 20.6374C39.8766 19.852 39.3645 19.2582 38.7673 18.9605C37.6781 18.4164 37.186 18.7817 36.2886 19.0968Z" fill="#80BD00"/>
<rect x="0.5" y="0.5" width="67" height="67" rx="4.5" stroke="#80BD00"/>
</svg>
